<svg width="64" height="64" viewBox="0 0 64 64" fill="none" xmlns="http://www.w3.org/2000/svg">
<path d="M32.0001 24C28.5334 24 25.6001 26.1333 24.5334 29.3333H18.1334C17.0667 26.1333 14.1334 24 10.6667 24C6.13341 24 2.66675 27.4667 2.66675 32C2.66675 36.5333 6.13341 40 10.6667 40C14.1334 40 17.0667 37.8667 18.1334 34.6667H24.5334C25.6001 37.8667 28.5334 40 32.0001 40C35.4667 40 38.4001 37.8667 39.4668 34.6667H45.8668C46.9334 37.8667 49.8667 40 53.3334 40C57.8667 40 61.3334 36.5333 61.3334 32C61.3334 27.4667 57.8667 24 53.3334 24C49.8667 24 46.9334 26.1333 45.8668 29.3333H39.4668C38.4001 26.1333 35.4667 24 32.0001 24ZM8.00008 32C8.00008 30.4 9.06675 29.3333 10.6667 29.3333C12.2667 29.3333 13.3334 30.4 13.3334 32C13.3334 33.6 12.2667 34.6667 10.6667 34.6667C9.06675 34.6667 8.00008 33.6 8.00008 32ZM56.0001 32C56.0001 33.6 54.9334 34.6667 53.3334 34.6667C51.7334 34.6667 50.6667 33.6 50.6667 32C50.6667 30.4 51.7334 29.3333 53.3334 29.3333C54.9334 29.3333 56.0001 30.4 56.0001 32Z" fill="#232635"/>
</svg>
