<svg width="48" height="50" viewBox="0 0 48 50" fill="none" xmlns="http://www.w3.org/2000/svg">
<path d="M34 25C34.5304 25 35.0391 25.2173 35.4142 25.6041C35.7892 25.9909 36 26.5155 36 27.0625V45.625H32V29.125H16V45.625H12V27.0625C12 26.5155 12.2107 25.9909 12.5857 25.6041C12.9608 25.2173 13.4695 25 14 25H34ZM24 33.25V37.375H20V33.25H24ZM24 12.625C26.2288 12.6243 28.4139 13.2638 30.3101 14.4718C32.2064 15.6798 33.7389 17.4085 34.736 19.4643L31.156 21.3102C30.4919 19.939 29.4705 18.7856 28.2063 17.9795C26.9422 17.1734 25.4853 16.7464 23.999 16.7464C22.5127 16.7464 21.0557 17.1734 19.7916 17.9795C18.5275 18.7856 17.5061 19.939 16.842 21.3102L13.264 19.4643C14.261 17.4085 15.7936 15.6798 17.6898 14.4718C19.5861 13.2638 21.7711 12.6243 24 12.625ZM24 4.375C27.7146 4.37417 31.3561 5.44021 34.5162 7.45363C37.6764 9.46706 40.2304 12.3483 41.892 15.7744L38.314 17.6204C36.9848 14.8792 34.9416 12.574 32.4134 10.9631C29.8851 9.35225 26.9718 8.49934 24 8.5C21.0281 8.49934 18.1148 9.35225 15.5865 10.9631C13.0583 12.574 11.0151 14.8792 9.68596 17.6204L6.10596 15.7744C7.76767 12.348 10.322 9.46654 13.4825 7.45309C16.6431 5.43965 20.285 4.37379 24 4.375Z" fill="#FED138"/>
</svg>
