<svg width="64" height="64" viewBox="0 0 64 64" fill="none" xmlns="http://www.w3.org/2000/svg">
<path d="M30 24H34V60H30V24Z" fill="#232635"/>
<path d="M22.6601 36.44C21.1902 35.1268 20.0143 33.518 19.2091 31.7189C18.404 29.9198 17.9878 27.971 17.9878 26C17.9878 24.029 18.404 22.0802 19.2091 20.2811C20.0143 18.482 21.1902 16.8732 22.6601 15.56L25.3401 18.54C24.2893 19.478 23.4485 20.6275 22.8728 21.9131C22.2971 23.1987 21.9995 24.5914 21.9995 26C21.9995 27.4086 22.2971 28.8013 22.8728 30.0869C23.4485 31.3725 24.2893 32.5219 25.3401 33.46L22.6601 36.44Z" fill="#232635"/>
<path d="M41.3399 36.44L38.6599 33.46C39.7107 32.5219 40.5515 31.3725 41.1272 30.0869C41.7029 28.8013 42.0005 27.4086 42.0005 26C42.0005 24.5914 41.7029 23.1987 41.1272 21.9131C40.5515 20.6275 39.7107 19.478 38.6599 18.54L41.3399 15.56C42.8097 16.8732 43.9857 18.482 44.7908 20.2811C45.596 22.0802 46.0122 24.029 46.0122 26C46.0122 27.971 45.596 29.9198 44.7908 31.7189C43.9857 33.518 42.8097 35.1268 41.3399 36.44Z" fill="#232635"/>
<path d="M16.8 43.6C14.0677 41.5508 11.85 38.8935 10.3226 35.8387C8.79519 32.7839 8 29.4154 8 26C8 22.5846 8.79519 19.2161 10.3226 16.1613C11.85 13.1065 14.0677 10.4493 16.8 8.40002L19.2 11.6C16.9645 13.2767 15.15 15.4508 13.9003 17.9502C12.6506 20.4496 12 23.2056 12 26C12 28.7944 12.6506 31.5505 13.9003 34.0499C15.15 36.5493 16.9645 38.7234 19.2 40.4L16.8 43.6Z" fill="#232635"/>
<path d="M47.2001 43.6L44.8 40.4C47.0356 38.7234 48.85 36.5493 50.0997 34.0499C51.3494 31.5505 52 28.7944 52 26C52 23.2056 51.3494 20.4496 50.0997 17.9502C48.85 15.4508 47.0356 13.2767 44.8 11.6L47.2001 8.40002C49.9324 10.4493 52.15 13.1065 53.6774 16.1613C55.2049 19.2161 56 22.5846 56 26C56 29.4154 55.2049 32.7839 53.6774 35.8387C52.15 38.8935 49.9324 41.5508 47.2001 43.6Z" fill="#232635"/>
</svg>
