<svg width="64" height="64" viewBox="0 0 64 64" fill="none" xmlns="http://www.w3.org/2000/svg">
<path d="M47.9999 29.3333H39.5199C38.3999 26.24 35.4666 24 31.9999 24C28.5333 24 25.5999 26.24 24.4799 29.3333H15.9999C15.1199 29.3333 10.6666 29.0666 10.6666 24V21.3333C10.6666 16.4533 14.7733 16 15.9999 16H43.1466C44.2666 19.0933 47.1999 21.3333 50.6666 21.3333C52.7883 21.3333 54.8232 20.4905 56.3234 18.9902C57.8237 17.4899 58.6666 15.455 58.6666 13.3333C58.6666 11.2116 57.8237 9.17675 56.3234 7.67646C54.8232 6.17617 52.7883 5.33331 50.6666 5.33331C47.1999 5.33331 44.2666 7.57331 43.1466 10.6666H15.9999C11.7066 10.6666 5.33325 13.4933 5.33325 21.3333V24C5.33325 31.84 11.7066 34.6666 15.9999 34.6666H24.4799C25.5999 37.76 28.5333 40 31.9999 40C35.4666 40 38.3999 37.76 39.5199 34.6666H47.9999C48.8799 34.6666 53.3333 34.9333 53.3333 40V42.6666C53.3333 47.5466 49.2266 48 47.9999 48H20.8533C19.7333 44.9066 16.7999 42.6666 13.3333 42.6666C11.2115 42.6666 9.17669 43.5095 7.6764 45.0098C6.17611 46.5101 5.33325 48.5449 5.33325 50.6666C5.33325 52.7884 6.17611 54.8232 7.6764 56.3235C9.17669 57.8238 11.2115 58.6666 13.3333 58.6666C16.7999 58.6666 19.7333 56.4266 20.8533 53.3333H47.9999C52.2933 53.3333 58.6666 50.48 58.6666 42.6666V40C58.6666 32.1866 52.2933 29.3333 47.9999 29.3333ZM50.6666 10.6666C51.3738 10.6666 52.0521 10.9476 52.5522 11.4477C53.0523 11.9478 53.3333 12.6261 53.3333 13.3333C53.3333 14.0406 53.0523 14.7188 52.5522 15.2189C52.0521 15.719 51.3738 16 50.6666 16C49.9593 16 49.2811 15.719 48.781 15.2189C48.2809 14.7188 47.9999 14.0406 47.9999 13.3333C47.9999 12.6261 48.2809 11.9478 48.781 11.4477C49.2811 10.9476 49.9593 10.6666 50.6666 10.6666ZM13.3333 53.3333C12.626 53.3333 11.9477 53.0524 11.4476 52.5523C10.9475 52.0522 10.6666 51.3739 10.6666 50.6666C10.6666 49.9594 10.9475 49.2811 11.4476 48.781C11.9477 48.2809 12.626 48 13.3333 48C14.0405 48 14.7188 48.2809 15.2189 48.781C15.719 49.2811 15.9999 49.9594 15.9999 50.6666C15.9999 51.3739 15.719 52.0522 15.2189 52.5523C14.7188 53.0524 14.0405 53.3333 13.3333 53.3333Z" fill="#232635"/>
</svg>
