<svg width="64" height="64" viewBox="0 0 64 64" fill="none" xmlns="http://www.w3.org/2000/svg">
<path d="M40 24V28H28C25.8783 28 23.8434 28.8429 22.3431 30.3431C20.8429 31.8434 20 33.8783 20 36V44C20 46.1217 20.8429 48.1566 22.3431 49.6569C23.8434 51.1571 25.8783 52 28 52H48C50.1217 52 52.1566 51.1571 53.6569 49.6569C55.1571 48.1566 56 46.1217 56 44V36C56 34.5957 55.6303 33.2162 54.9282 32.0001C54.226 30.784 53.2161 29.7741 52 29.072V24.68C56.66 26.328 60 30.772 60 35.996V43.996C60 47.1786 58.7357 50.2308 56.4853 52.4813C54.2348 54.7317 51.1826 55.996 48 55.996H28C24.8174 55.996 21.7652 54.7317 19.5147 52.4813C17.2643 50.2308 16 47.1786 16 43.996V36C16 32.8174 17.2643 29.7652 19.5147 27.5147C21.7652 25.2643 24.8174 24 28 24H40Z" fill="#232635"/>
<path d="M24 40V36H36C38.1217 36 40.1566 35.1571 41.6569 33.6569C43.1571 32.1566 44 30.1217 44 28V20C44 17.8783 43.1571 15.8434 41.6569 14.3431C40.1566 12.8429 38.1217 12 36 12H16C13.8783 12 11.8434 12.8429 10.3431 14.3431C8.84285 15.8434 8 17.8783 8 20V28C8.00004 29.4043 8.3697 30.7838 9.07185 31.9999C9.77399 33.216 10.7839 34.2259 12 34.928V39.32C9.6597 38.492 7.63368 36.9587 6.20096 34.9314C4.76824 32.9041 3.99928 30.4825 4 28V20C4 16.8174 5.26428 13.7652 7.51472 11.5147C9.76516 9.26428 12.8174 8 16 8H36C39.1826 8 42.2348 9.26428 44.4853 11.5147C46.7357 13.7652 48 16.8174 48 20V28C48 31.1826 46.7357 34.2348 44.4853 36.4853C42.2348 38.7357 39.1826 40 36 40H24Z" fill="#232635"/>
</svg>
