<svg width="100" height="20" viewBox="0 0 100 20" fill="none" xmlns="http://www.w3.org/2000/svg">
<path d="M41.1858 0H67.6808C71.8785 0.3399 75.2361 1.7467 78.9877 2.9704C83.9715 4.6359 90.1361 7.6611 94.3077 10.4824C97.0615 12.3519 99.2654 15.7511 99.8161 18.8783L100 20H53.2005H6.40085L3.59392 13.8815C2.04615 10.5164 0.787 7.6951 0.787 7.5932C0.655846 7.478 0.524692 7.3081 0.524692 7.3081C0.393462 6.9682 0.131154 6.1184 0 4.2489C6.68938 3.569 34.234 0.6798 41.1858 0Z" fill="#232635"/>
<path d="M74.6322 19.7142H99.8161L99.9999 19.9993H53.2003H6.40071L3.59379 13.8809C2.04602 10.5158 0.786865 7.69449 0.786865 7.59249C0.786865 7.49049 9.54871 7.45659 20.2779 7.49049L39.7428 7.62649L42.4186 8.54429C45.2255 9.49599 48.2947 11.0256 53.1216 13.8129C56.6893 15.8864 59.9946 17.348 63.2475 18.2658C68.4738 19.7145 72.2053 19.7143 74.5699 19.7142H74.6322Z" fill="#FED138"/>
</svg>
