<svg width="23" height="25" viewBox="0 0 23 25" fill="none" xmlns="http://www.w3.org/2000/svg">
<path d="M10.2327 7.92035H12.0931V24.6645H10.2327V7.92035Z" fill="white"/>
<path d="M6.81866 13.7064C6.13502 13.0956 5.58806 12.3474 5.21357 11.5106C4.83909 10.6738 4.64551 9.76738 4.64551 8.85063C4.64551 7.93387 4.83909 7.02745 5.21357 6.19067C5.58806 5.35389 6.13502 4.60561 6.81866 3.99481L8.06517 5.38086C7.57642 5.81716 7.18536 6.3518 6.9176 6.94974C6.64984 7.54769 6.51143 8.19546 6.51143 8.85063C6.51143 9.50579 6.64984 10.1536 6.9176 10.7515C7.18536 11.3495 7.57642 11.8841 8.06517 12.3204L6.81866 13.7064Z" fill="white"/>
<path d="M15.507 13.7064L14.2605 12.3204C14.7492 11.8841 15.1403 11.3495 15.4081 10.7515C15.6758 10.1536 15.8142 9.50579 15.8142 8.85063C15.8142 8.19546 15.6758 7.54769 15.4081 6.94974C15.1403 6.3518 14.7492 5.81716 14.2605 5.38086L15.507 3.99481C16.1906 4.60561 16.7376 5.35389 17.1121 6.19067C17.4866 7.02745 17.6802 7.93387 17.6802 8.85063C17.6802 9.76738 17.4866 10.6738 17.1121 11.5106C16.7376 12.3474 16.1906 13.0956 15.507 13.7064Z" fill="white"/>
<path d="M4.09302 17.0366C2.82218 16.0835 1.7907 14.8476 1.08028 13.4267C0.369857 12.0059 0 10.4392 0 8.8506C0 7.26204 0.369857 5.6953 1.08028 4.27446C1.7907 2.85361 2.82218 1.61768 4.09302 0.664551L5.2093 2.15292C4.16952 2.93276 3.32559 3.94397 2.74433 5.10648C2.16307 6.26899 1.86046 7.55087 1.86046 8.8506C1.86046 10.1503 2.16307 11.4322 2.74433 12.5947C3.32559 13.7572 4.16952 14.7684 5.2093 15.5483L4.09302 17.0366Z" fill="white"/>
<path d="M18.2325 17.0366L17.1162 15.5483C18.156 14.7684 18.9999 13.7572 19.5812 12.5947C20.1624 11.4322 20.465 10.1503 20.465 8.8506C20.465 7.55087 20.1624 6.26899 19.5812 5.10648C18.9999 3.94397 18.156 2.93276 17.1162 2.15292L18.2325 0.664551C19.5033 1.61768 20.5348 2.85361 21.2452 4.27446C21.9557 5.6953 22.3255 7.26204 22.3255 8.8506C22.3255 10.4392 21.9557 12.0059 21.2452 13.4267C20.5348 14.8476 19.5033 16.0835 18.2325 17.0366Z" fill="white"/>
</svg>
