<svg width="41" height="43" viewBox="0 0 41 43" fill="none" xmlns="http://www.w3.org/2000/svg">
<path d="M38 25.5938H29C28.2046 25.5946 27.442 25.9208 26.8796 26.5008C26.3172 27.0808 26.0008 27.8672 26 28.6875V31.7812H17.621L11 24.9533V16.3125H14C14.7955 16.3117 15.5581 15.9855 16.1205 15.4055C16.6829 14.8254 16.9993 14.039 17 13.2188V3.9375C16.9993 3.11724 16.6829 2.33081 16.1205 1.75079C15.5581 1.17078 14.7955 0.844569 14 0.84375H5.00005C4.20464 0.844569 3.44204 1.17078 2.8796 1.75079C2.31717 2.33081 2.00084 3.11724 2.00005 3.9375V13.2188C2.00084 14.039 2.31717 14.8254 2.8796 15.4055C3.44204 15.9855 4.20464 16.3117 5.00005 16.3125H8.00005V24.9533L0.939546 32.2345C0.658339 32.5246 0.500366 32.9179 0.500366 33.3281C0.500366 33.7383 0.658339 34.1317 0.939546 34.4218L8.43955 42.1561C8.72084 42.4461 9.1023 42.609 9.50005 42.609C9.89779 42.609 10.2793 42.4461 10.5605 42.1561L17.621 34.875H26V37.9688C26.0008 38.789 26.3172 39.5754 26.8796 40.1555C27.442 40.7355 28.2046 41.0617 29 41.0625H38C38.7955 41.0617 39.5581 40.7355 40.1205 40.1555C40.6829 39.5754 40.9993 38.789 41 37.9688V28.6875C40.9993 27.8672 40.6829 27.0808 40.1205 26.5008C39.5581 25.9208 38.7955 25.5946 38 25.5938ZM5.00005 3.9375H14V13.2188H5.00005V3.9375ZM9.50005 38.8752L4.12105 33.3281L9.50005 27.781L14.879 33.3281L9.50005 38.8752ZM29 37.9688V28.6875H38V37.9688H29Z" fill="#FED138"/>
</svg>
