<svg width="18" height="18" viewBox="0 0 18 18" fill="none" xmlns="http://www.w3.org/2000/svg">
<path d="M3.04506 12.7674L2.13582 11.8704C2.08076 11.8201 2.03689 11.7593 2.00689 11.6918C1.9769 11.6243 1.96143 11.5515 1.96143 11.478C1.96143 11.4044 1.9769 11.3317 2.00689 11.2642C2.03689 11.1967 2.08076 11.1359 2.13582 11.0855L6.90073 6.43251L8.05167 5.3113C8.12585 5.23531 8.21512 5.17481 8.31405 5.13346C8.41297 5.09212 8.5195 5.0708 8.62714 5.0708C8.73479 5.0708 8.84131 5.09212 8.94024 5.13346C9.03917 5.17481 9.12843 5.23531 9.20261 5.3113L15.13 11.0855C15.2354 11.1903 15.2945 11.3312 15.2945 11.478C15.2945 11.6247 15.2354 11.7656 15.13 11.8704L14.2207 12.7674C14.1112 12.8708 13.9647 12.9286 13.8121 12.9286C13.6596 12.9286 13.5131 12.8708 13.4036 12.7674L8.62714 8.11433L3.86223 12.7674C3.75272 12.8708 3.60618 12.9286 3.45365 12.9286C3.30112 12.9286 3.15457 12.8708 3.04506 12.7674Z" fill="#FED138"/>
</svg>
