<svg width="42" height="46" viewBox="0 0 66 69" fill="none" xmlns="http://www.w3.org/2000/svg">
<path d="M41.25 25.5234V4.25391H45.375V25.5234H41.25Z" fill="#FFFFFF"/>
<path d="M49.5 25.5234V4.25391H53.625V25.5234H49.5Z" fill="#FFFFFF"/>
<path d="M57.75 25.5234V4.25391H61.875V25.5234H57.75Z" fill="#FFFFFF"/>
<path d="M33 42.5391C31.9098 42.5647 30.8259 42.3621 29.8137 41.9436C28.8016 41.5251 27.8822 40.8993 27.1111 40.1042C26.34 39.309 25.7333 38.3609 25.3274 37.3171C24.9216 36.2733 24.7252 35.1555 24.75 34.0313C24.7252 32.907 24.9216 31.7892 25.3274 30.7454C25.7333 29.7016 26.34 28.7535 27.1111 27.9583C27.8822 27.1632 28.8016 26.5374 29.8137 26.1189C30.8259 25.7004 31.9098 25.4978 33 25.5234V21.2695C30.5525 21.2695 28.1599 22.018 26.1248 23.4203C24.0898 24.8225 22.5036 26.8157 21.567 29.1476C20.6304 31.4795 20.3853 34.0454 20.8628 36.5209C21.3403 38.9965 22.5189 41.2704 24.2496 43.0552C25.9802 44.8399 28.1852 46.0553 30.5858 46.5478C32.9863 47.0402 35.4745 46.7874 37.7357 45.8215C39.9969 44.8556 41.9297 43.2199 43.2894 41.1213C44.6492 39.0226 45.375 36.5553 45.375 34.0313H41.25C41.2748 35.1555 41.0784 36.2733 40.6726 37.3171C40.2667 38.3609 39.66 39.309 38.8889 40.1042C38.1178 40.8993 37.1984 41.5251 36.1863 41.9436C35.1741 42.3621 34.0902 42.5647 33 42.5391Z" fill="#FFFFFF"/>
<path d="M59.5918 39.2508L53.8271 34.0312L51.1087 37.2302L56.8672 42.4455L51.9997 51.1405L44.9315 48.6732C43.268 50.1106 41.3736 51.2371 39.3339 52.0019L37.8675 59.5547H28.1325L26.6681 52.004C24.6424 51.228 22.7619 50.0968 21.1097 48.6604L14.0002 51.1405L9.13272 42.4455L14.753 37.3514C14.3685 35.1519 14.3636 32.8996 14.7386 30.6983L9.13272 25.6149L14.0002 16.922L21.0684 19.3893C22.7324 17.9509 24.6275 16.8237 26.6681 16.0585L28.1325 8.50781H33V4.25391H28.1325C27.1789 4.25401 26.2547 4.59483 25.5173 5.21839C24.7799 5.84194 24.2748 6.70971 24.0879 7.67405L23.0484 13.0297C22.1011 13.4981 21.1866 14.034 20.3115 14.6334L15.3202 12.8915C14.4171 12.5761 13.4359 12.5935 12.5438 12.9406C11.6517 13.2877 10.904 13.9431 10.428 14.7951L5.56047 23.4901C5.08365 24.3415 4.90753 25.3369 5.06207 26.3071C5.21661 27.2773 5.69228 28.1624 6.40816 28.8117L10.3908 32.4211C10.3558 32.9571 10.3125 33.4889 10.3125 34.0312C10.3125 34.58 10.3331 35.1224 10.3702 35.6605L6.41022 39.2508C5.69367 39.8996 5.21722 40.7844 5.06192 41.7546C4.90662 42.7248 5.08207 43.7206 5.55841 44.5724L10.4259 53.2674C10.9021 54.1203 11.6505 54.7764 12.5435 55.1235C13.4365 55.4707 14.4186 55.4875 15.3223 55.171L20.3424 53.4184C21.2073 54.0202 22.1114 54.5596 23.0484 55.0328L24.0858 60.3885C24.2728 61.3531 24.7783 62.2212 25.5161 62.8448C26.2539 63.4684 27.1785 63.809 28.1325 63.8086H37.8675C38.8211 63.8085 39.7452 63.4677 40.4826 62.8441C41.22 62.2206 41.7251 61.3528 41.912 60.3885L42.9515 55.0307C43.8988 54.563 44.8133 54.0278 45.6885 53.4291L50.6777 55.1689C51.5808 55.485 52.5623 55.4682 53.4548 55.1215C54.3473 54.7747 55.0956 54.1195 55.572 53.2674L60.4395 44.5724C60.9163 43.721 61.0924 42.7256 60.9379 41.7554C60.7833 40.7852 60.3077 39.9002 59.5918 39.2508Z" fill="#FFFFFF"/>
</svg>