<svg width="37" height="31" viewBox="0 0 37 31" fill="none" xmlns="http://www.w3.org/2000/svg">
<path d="M2.53575 30.5793C1.86725 30.6165 1.20856 30.4057 0.685812 29.9873C0.460561 29.7838 0.282572 29.5334 0.16433 29.2538C0.0460882 28.9742 -0.00954379 28.6721 0.00133717 28.3687C0.0417526 27.5866 0.304918 26.8324 0.759809 26.195C1.20379 25.5383 16.2345 1.47994 16.3177 1.3597C16.5672 0.965431 16.9072 0.636385 17.3093 0.3999C17.7115 0.163415 18.1643 0.0263176 18.6302 0C19.0398 0.0285664 19.4392 0.141011 19.8036 0.330357C20.1679 0.519703 20.4895 0.781911 20.7483 1.10071C21.2293 1.66494 21.96 2.95064 23.4677 5.37404L28.6106 13.8745C32.3104 20.0717 36.0103 26.2875 36.3618 26.8887L35.2518 27.5084L34.3268 28.0357L35.2518 27.5084L36.3618 26.8887C36.7277 27.4652 36.9468 28.1226 37 28.8034C36.9988 29.0457 36.9471 29.2852 36.8484 29.5065C36.7497 29.7279 36.606 29.9262 36.4265 30.0891C36.0672 30.3902 35.6094 30.5483 35.1408 30.5331H2.53575V30.5793ZM34.0864 28.0357C33.0504 26.232 20.1656 4.69882 18.9077 2.86739C18.8143 2.77229 18.7155 2.68273 18.6117 2.59915C18.5303 2.65519 18.4585 2.72389 18.3989 2.80264C18.3989 2.80264 3.38671 26.8517 2.85948 27.6194C2.76924 27.7474 2.69761 27.8876 2.64674 28.0357H34.0956H34.0864Z" fill="#FF4141"/>
<path d="M17.2134 20.3027V9.82281C17.2158 9.48257 17.3521 9.15695 17.5927 8.91636C17.8333 8.67577 18.1589 8.53953 18.4992 8.53711C18.6688 8.5371 18.8367 8.57066 18.9933 8.63585C19.1499 8.70104 19.2921 8.79658 19.4116 8.91695C19.5311 9.03732 19.6257 9.18015 19.6897 9.3372C19.7538 9.49426 19.7861 9.66244 19.7849 9.83206V20.3027C19.7861 20.4727 19.7539 20.6414 19.6899 20.7989C19.6259 20.9565 19.5316 21.1 19.4122 21.2211C19.2928 21.3422 19.1507 21.4386 18.994 21.5048C18.8374 21.571 18.6692 21.6057 18.4992 21.6069C18.3283 21.6069 18.1592 21.5731 18.0014 21.5074C17.8437 21.4418 17.7005 21.3456 17.5802 21.2243C17.4598 21.1031 17.3646 20.9593 17.3 20.8011C17.2355 20.6429 17.2029 20.4735 17.2041 20.3027H17.2134Z" fill="#FF4141"/>
<path d="M17.2134 24.023V23.3756C17.2121 23.2052 17.2448 23.0362 17.3094 22.8785C17.3741 22.7209 17.4694 22.5776 17.5899 22.4571C17.7105 22.3366 17.8537 22.2413 18.0114 22.1767C18.1691 22.112 18.338 22.0794 18.5085 22.0806C18.6781 22.0806 18.8461 22.1142 19.0027 22.1793C19.1593 22.2445 19.3015 22.3401 19.421 22.4604C19.5405 22.5808 19.6351 22.7236 19.6991 22.8807C19.7632 23.0377 19.7956 23.2059 19.7943 23.3756V24.023C19.7943 24.1926 19.7608 24.3606 19.6956 24.5172C19.6304 24.6738 19.5348 24.8159 19.4145 24.9354C19.2941 25.0549 19.1512 25.1495 18.9941 25.2135C18.8371 25.2776 18.6689 25.3099 18.4992 25.3087C18.3296 25.3099 18.1614 25.2776 18.0043 25.2135C17.8472 25.1495 17.7044 25.0549 17.584 24.9354C17.4636 24.8159 17.3681 24.6738 17.3029 24.5172C17.2377 24.3606 17.2041 24.1926 17.2041 24.023H17.2134Z" fill="#FF4141"/>
</svg>
