<svg width="25" height="21" viewBox="0 0 25 21" fill="none" xmlns="http://www.w3.org/2000/svg">
<path d="M1.71334 20.6617C1.26166 20.6868 0.816593 20.5444 0.463387 20.2618C0.31119 20.1242 0.190927 19.9551 0.111034 19.7661C0.0311407 19.5772 -0.0064485 19.3731 0.000903491 19.1681C0.0282112 18.6396 0.206026 18.1301 0.513385 17.6994C0.813374 17.2556 10.9693 0.999965 11.0255 0.918717C11.1941 0.65232 11.4238 0.429991 11.6955 0.270203C11.9673 0.110415 12.2732 0.0177822 12.5879 0C12.8647 0.0193017 13.1346 0.0952781 13.3808 0.223215C13.627 0.351152 13.8443 0.528319 14.0191 0.743723C14.3441 1.12496 14.8379 1.99368 15.8566 3.63112L19.3315 9.37466C21.8314 13.562 24.3313 17.7619 24.5688 18.1681L23.8188 18.5868L23.1938 18.9431L23.8188 18.5868L24.5688 18.1681C24.816 18.5576 24.9641 19.0018 25 19.4618C24.9992 19.6255 24.9643 19.7873 24.8976 19.9369C24.8309 20.0864 24.7338 20.2205 24.6125 20.3305C24.3697 20.534 24.0604 20.6408 23.7438 20.6305H1.71334V20.6617ZM23.0313 18.9431C22.3313 17.7244 13.6254 3.17489 12.7754 1.93743C12.7124 1.87317 12.6456 1.81266 12.5754 1.75619C12.5205 1.79405 12.472 1.84047 12.4317 1.89368C12.4317 1.89368 2.28832 18.1431 1.93208 18.6618C1.87111 18.7483 1.82271 18.843 1.78834 18.9431H23.0376H23.0313Z" fill="white"/>
<path d="M11.6315 13.7183V6.63727C11.6332 6.40738 11.7252 6.18737 11.8878 6.0248C12.0503 5.86224 12.2703 5.77019 12.5002 5.76855C12.6148 5.76855 12.7283 5.79123 12.8341 5.83527C12.9399 5.87932 13.036 5.94387 13.1167 6.0252C13.1975 6.10653 13.2613 6.20304 13.3046 6.30916C13.3479 6.41528 13.3698 6.52892 13.369 6.64352V13.7183C13.3698 13.8332 13.348 13.9471 13.3047 14.0536C13.2615 14.1601 13.1978 14.257 13.1171 14.3388C13.0364 14.4206 12.9404 14.4858 12.8346 14.5305C12.7288 14.5752 12.6151 14.5987 12.5002 14.5995C12.3848 14.5995 12.2705 14.5767 12.1639 14.5323C12.0574 14.4879 11.9606 14.4229 11.8793 14.341C11.798 14.2591 11.7337 14.1619 11.6901 14.055C11.6465 13.9481 11.6244 13.8337 11.6253 13.7183H11.6315Z" fill="white"/>
<path d="M11.6315 16.2306V15.7931C11.6307 15.678 11.6527 15.5639 11.6964 15.4573C11.7401 15.3508 11.8045 15.254 11.8859 15.1726C11.9673 15.0912 12.0641 15.0268 12.1706 14.9831C12.2772 14.9394 12.3913 14.9173 12.5065 14.9182C12.6211 14.9182 12.7345 14.9408 12.8404 14.9849C12.9462 15.0289 13.0422 15.0935 13.123 15.1748C13.2037 15.2562 13.2676 15.3527 13.3109 15.4588C13.3541 15.5649 13.376 15.6785 13.3752 15.7931V16.2306C13.3752 16.3452 13.3525 16.4587 13.3085 16.5645C13.2644 16.6703 13.1999 16.7664 13.1185 16.8471C13.0372 16.9279 12.9407 16.9917 12.8346 17.035C12.7285 17.0783 12.6148 17.1002 12.5002 17.0993C12.3856 17.1002 12.272 17.0783 12.1659 17.035C12.0597 16.9917 11.9632 16.9279 11.8819 16.8471C11.8006 16.7664 11.736 16.6703 11.692 16.5645C11.6479 16.4587 11.6252 16.3452 11.6252 16.2306H11.6315Z" fill="white"/>
</svg>
