<svg width="32" height="32" viewBox="0 0 32 32" fill="none" xmlns="http://www.w3.org/2000/svg">
<path fill-rule="evenodd" clip-rule="evenodd" d="M10.2277 10.7774C9.9241 11.081 9.9241 11.5733 10.2277 11.8769L14.3508 16L10.2277 20.123C9.9241 20.4266 9.9241 20.9189 10.2277 21.2225L10.7774 21.7722C11.081 22.0758 11.5733 22.0758 11.8769 21.7722L16 17.6492L20.123 21.7722C20.4266 22.0758 20.919 22.0758 21.2225 21.7722L21.7723 21.2225C22.0759 20.9189 22.0759 20.4266 21.7723 20.123L17.6492 16L21.7723 11.8769C22.0759 11.5733 22.0759 11.081 21.7723 10.7774L21.2225 10.2277C20.919 9.9241 20.4266 9.9241 20.123 10.2277L16 14.3508L11.8769 10.2277C11.5733 9.9241 11.081 9.9241 10.7774 10.2277L10.2277 10.7774Z" fill="#A2A2A2"/>
</svg>
