<svg width="48" height="29" viewBox="0 0 48 29" fill="none" xmlns="http://www.w3.org/2000/svg">
<path d="M6.17277 0.188192C4.35744 0.262644 2.99593 0.486003 2.23954 0.783812C1.71006 1.00717 0.953673 1.67724 0.651118 2.19841C0.121646 3.09185 -0.105271 4.2831 0.0460075 5.25098C0.191731 5.94275 0.513656 6.58673 0.981557 7.12247C1.44946 7.65821 2.04799 8.06814 2.72097 8.31375C3.39394 8.55938 4.1193 8.63262 4.82892 8.52667C5.53855 8.42069 6.20919 8.13894 6.77788 7.70792C7.68554 6.96337 8.97142 4.50644 10.106 1.45389C10.4085 0.634909 10.4085 0.337097 10.2573 0.262644C10.106 0.188192 6.8535 0.113739 6.17277 0.188192ZM25.0069 0.188192C23.1159 0.411548 21.3762 1.52834 20.2416 3.09185L4.8869 27.8101C4.81127 28.0335 4.81127 28.0335 4.96255 28.1824C5.11383 28.3313 5.18945 28.3313 7.30733 28.3313C9.19832 28.2569 9.42525 28.2569 10.106 28.108C11.8457 27.6612 13.2072 26.6189 14.1905 25.1298C15.3251 23.4919 29.4696 0.634909 29.5452 0.486003L29.3939 0.262644C29.3183 0.113739 29.0914 0.113739 27.4273 0.113739L25.0069 0.188192ZM43.387 0.188192C41.7231 0.411548 40.2104 1.15608 39.0757 2.34732L30.9067 15.3021L23.1159 27.8846C23.0402 28.3313 23.1915 28.3313 25.0069 28.3313L27.4273 28.2569C29.5452 28.0335 31.3604 26.9167 32.4951 25.2043C33.9323 22.9707 47.7742 0.70936 47.7742 0.560454C47.8498 0.113739 47.6987 0.113739 45.6564 0.113739L43.3115 0.188192H43.387Z" fill="#FED138"/>
</svg>
