<svg width="400" height="90" viewBox="0 0 400 90" fill="none" xmlns="http://www.w3.org/2000/svg">
<g clip-path="url(#clip0_424_1016)">
<path d="M36.1728 30.1882C34.3574 30.2626 32.9959 30.486 32.2395 30.7838C31.7101 31.0072 30.9537 31.6772 30.6511 32.1984C30.1216 33.0918 29.8947 34.2831 30.046 35.251C30.1917 35.9428 30.5137 36.5867 30.9816 37.1225C31.4495 37.6582 32.048 38.0681 32.721 38.3137C33.3939 38.5594 34.1193 38.6326 34.8289 38.5267C35.5385 38.4207 36.2092 38.1389 36.7779 37.7079C37.6855 36.9634 38.9714 34.5064 40.106 31.4539C40.4085 30.6349 40.4085 30.3371 40.2573 30.2626C40.106 30.1882 36.8535 30.1137 36.1728 30.1882ZM55.0069 30.1882C53.1159 30.4115 51.3762 31.5283 50.2416 33.0918L34.8869 57.8101C34.8113 58.0335 34.8113 58.0335 34.9625 58.1824C35.1138 58.3313 35.1895 58.3313 37.3073 58.3313C39.1983 58.2569 39.4252 58.2569 40.106 58.108C41.8457 57.6612 43.2072 56.6189 44.1905 55.1298C45.3251 53.4919 59.4696 30.6349 59.5452 30.486L59.3939 30.2626C59.3183 30.1137 59.0914 30.1137 57.4273 30.1137L55.0069 30.1882ZM73.387 30.1882C71.7231 30.4115 70.2104 31.1561 69.0757 32.3473L60.9067 45.3021L53.1159 57.8846C53.0402 58.3313 53.1915 58.3313 55.0069 58.3313L57.4273 58.2569C59.5452 58.0335 61.3604 56.9167 62.4951 55.2043C63.9323 52.9707 77.7742 30.7094 77.7742 30.5605C77.8498 30.1137 77.6987 30.1137 75.6564 30.1137L73.3115 30.1882H73.387Z" fill="#FED138"/>
</g>
<path d="M102.778 45.3701H100.215V43.8936H102.778C103.198 43.8936 103.537 43.8252 103.797 43.6885C104.061 43.5472 104.255 43.3558 104.378 43.1143C104.501 42.8682 104.562 42.5879 104.562 42.2734C104.562 41.9681 104.501 41.6833 104.378 41.4189C104.255 41.1546 104.061 40.9404 103.797 40.7764C103.537 40.6123 103.198 40.5303 102.778 40.5303H100.83V49H98.9502V39.0469H102.778C103.553 39.0469 104.214 39.1859 104.761 39.4639C105.312 39.7373 105.731 40.1178 106.019 40.6055C106.31 41.0885 106.456 41.64 106.456 42.2598C106.456 42.9023 106.31 43.4561 106.019 43.9209C105.731 44.3857 105.312 44.7435 104.761 44.9941C104.214 45.2448 103.553 45.3701 102.778 45.3701ZM117.392 43.7705V44.2832C117.392 45.0352 117.292 45.7119 117.091 46.3135C116.891 46.9105 116.606 47.4186 116.237 47.8379C115.868 48.2572 115.428 48.5785 114.918 48.8018C114.407 49.0251 113.84 49.1367 113.215 49.1367C112.6 49.1367 112.035 49.0251 111.52 48.8018C111.01 48.5785 110.568 48.2572 110.194 47.8379C109.82 47.4186 109.531 46.9105 109.326 46.3135C109.121 45.7119 109.018 45.0352 109.018 44.2832V43.7705C109.018 43.014 109.121 42.3372 109.326 41.7402C109.531 41.1432 109.818 40.6351 110.187 40.2158C110.556 39.792 110.996 39.4684 111.506 39.2451C112.021 39.0218 112.587 38.9102 113.202 38.9102C113.826 38.9102 114.393 39.0218 114.904 39.2451C115.414 39.4684 115.854 39.792 116.223 40.2158C116.597 40.6351 116.884 41.1432 117.085 41.7402C117.29 42.3372 117.392 43.014 117.392 43.7705ZM115.492 44.2832V43.7568C115.492 43.2145 115.442 42.7383 115.341 42.3281C115.241 41.9134 115.093 41.5648 114.897 41.2822C114.701 40.9997 114.46 40.7878 114.172 40.6465C113.885 40.5007 113.562 40.4277 113.202 40.4277C112.837 40.4277 112.514 40.5007 112.231 40.6465C111.953 40.7878 111.716 40.9997 111.52 41.2822C111.324 41.5648 111.174 41.9134 111.069 42.3281C110.969 42.7383 110.919 43.2145 110.919 43.7568V44.2832C110.919 44.821 110.969 45.2972 111.069 45.7119C111.174 46.1266 111.324 46.4775 111.52 46.7646C111.721 47.0472 111.962 47.2614 112.245 47.4072C112.527 47.5531 112.851 47.626 113.215 47.626C113.58 47.626 113.904 47.5531 114.186 47.4072C114.469 47.2614 114.706 47.0472 114.897 46.7646C115.093 46.4775 115.241 46.1266 115.341 45.7119C115.442 45.2972 115.492 44.821 115.492 44.2832ZM123.359 49H121.212L121.226 47.5234H123.359C123.937 47.5234 124.423 47.3958 124.815 47.1406C125.207 46.8809 125.503 46.5094 125.703 46.0264C125.904 45.5387 126.004 44.9554 126.004 44.2764V43.7637C126.004 43.2396 125.947 42.777 125.833 42.376C125.719 41.9749 125.551 41.6377 125.327 41.3643C125.109 41.0908 124.837 40.8835 124.514 40.7422C124.19 40.6009 123.819 40.5303 123.4 40.5303H121.171V39.0469H123.4C124.065 39.0469 124.671 39.1585 125.218 39.3818C125.769 39.6051 126.246 39.9264 126.647 40.3457C127.052 40.7604 127.362 41.2572 127.576 41.8359C127.795 42.4147 127.904 43.0618 127.904 43.7773V44.2764C127.904 44.9873 127.795 45.6344 127.576 46.2178C127.362 46.7965 127.052 47.2933 126.647 47.708C126.246 48.1227 125.767 48.4417 125.211 48.665C124.655 48.8883 124.038 49 123.359 49ZM122.265 39.0469V49H120.385V39.0469H122.265ZM136.611 39.0469H138.238L140.958 46.5391L143.672 39.0469H145.306L141.608 49H140.302L136.611 39.0469ZM135.79 39.0469H137.383L137.67 45.9307V49H135.79V39.0469ZM144.527 39.0469H146.126V49H144.246V45.9307L144.527 39.0469ZM157.5 43.7705V44.2832C157.5 45.0352 157.4 45.7119 157.199 46.3135C156.999 46.9105 156.714 47.4186 156.345 47.8379C155.976 48.2572 155.536 48.5785 155.025 48.8018C154.515 49.0251 153.948 49.1367 153.323 49.1367C152.708 49.1367 152.143 49.0251 151.628 48.8018C151.118 48.5785 150.675 48.2572 150.302 47.8379C149.928 47.4186 149.639 46.9105 149.434 46.3135C149.229 45.7119 149.126 45.0352 149.126 44.2832V43.7705C149.126 43.014 149.229 42.3372 149.434 41.7402C149.639 41.1432 149.926 40.6351 150.295 40.2158C150.664 39.792 151.104 39.4684 151.614 39.2451C152.129 39.0218 152.694 38.9102 153.31 38.9102C153.934 38.9102 154.501 39.0218 155.012 39.2451C155.522 39.4684 155.962 39.792 156.331 40.2158C156.705 40.6351 156.992 41.1432 157.192 41.7402C157.397 42.3372 157.5 43.014 157.5 43.7705ZM155.6 44.2832V43.7568C155.6 43.2145 155.549 42.7383 155.449 42.3281C155.349 41.9134 155.201 41.5648 155.005 41.2822C154.809 40.9997 154.567 40.7878 154.28 40.6465C153.993 40.5007 153.67 40.4277 153.31 40.4277C152.945 40.4277 152.621 40.5007 152.339 40.6465C152.061 40.7878 151.824 40.9997 151.628 41.2822C151.432 41.5648 151.282 41.9134 151.177 42.3281C151.076 42.7383 151.026 43.2145 151.026 43.7568V44.2832C151.026 44.821 151.076 45.2972 151.177 45.7119C151.282 46.1266 151.432 46.4775 151.628 46.7646C151.828 47.0472 152.07 47.2614 152.353 47.4072C152.635 47.5531 152.959 47.626 153.323 47.626C153.688 47.626 154.011 47.5531 154.294 47.4072C154.576 47.2614 154.813 47.0472 155.005 46.7646C155.201 46.4775 155.349 46.1266 155.449 45.7119C155.549 45.2972 155.6 44.821 155.6 44.2832ZM168.491 39.0469V49H166.604L162.373 42.0957V49H160.493V39.0469H162.373L166.618 45.958V39.0469H168.491ZM173.808 39.0469V49H171.928V39.0469H173.808ZM181.305 39.0469V49H179.432V39.0469H181.305ZM184.395 39.0469V40.5303H176.377V39.0469H184.395ZM194.914 43.7705V44.2832C194.914 45.0352 194.814 45.7119 194.614 46.3135C194.413 46.9105 194.128 47.4186 193.759 47.8379C193.39 48.2572 192.95 48.5785 192.44 48.8018C191.929 49.0251 191.362 49.1367 190.738 49.1367C190.122 49.1367 189.557 49.0251 189.042 48.8018C188.532 48.5785 188.09 48.2572 187.716 47.8379C187.343 47.4186 187.053 46.9105 186.848 46.3135C186.643 45.7119 186.54 45.0352 186.54 44.2832V43.7705C186.54 43.014 186.643 42.3372 186.848 41.7402C187.053 41.1432 187.34 40.6351 187.709 40.2158C188.079 39.792 188.518 39.4684 189.029 39.2451C189.544 39.0218 190.109 38.9102 190.724 38.9102C191.348 38.9102 191.916 39.0218 192.426 39.2451C192.937 39.4684 193.376 39.792 193.746 40.2158C194.119 40.6351 194.406 41.1432 194.607 41.7402C194.812 42.3372 194.914 43.014 194.914 43.7705ZM193.014 44.2832V43.7568C193.014 43.2145 192.964 42.7383 192.864 42.3281C192.763 41.9134 192.615 41.5648 192.419 41.2822C192.223 40.9997 191.982 40.7878 191.695 40.6465C191.408 40.5007 191.084 40.4277 190.724 40.4277C190.359 40.4277 190.036 40.5007 189.753 40.6465C189.475 40.7878 189.238 40.9997 189.042 41.2822C188.846 41.5648 188.696 41.9134 188.591 42.3281C188.491 42.7383 188.441 43.2145 188.441 43.7568V44.2832C188.441 44.821 188.491 45.2972 188.591 45.7119C188.696 46.1266 188.846 46.4775 189.042 46.7646C189.243 47.0472 189.484 47.2614 189.767 47.4072C190.05 47.5531 190.373 47.626 190.738 47.626C191.102 47.626 191.426 47.5531 191.708 47.4072C191.991 47.2614 192.228 47.0472 192.419 46.7646C192.615 46.4775 192.763 46.1266 192.864 45.7119C192.964 45.2972 193.014 44.821 193.014 44.2832ZM197.907 39.0469H201.523C202.28 39.0469 202.929 39.1608 203.472 39.3887C204.014 39.6165 204.431 39.9538 204.723 40.4004C205.014 40.847 205.16 41.3962 205.16 42.0479C205.16 42.5628 205.069 43.0094 204.887 43.3877C204.704 43.766 204.447 44.0827 204.114 44.3379C203.786 44.5931 203.399 44.7936 202.952 44.9395L202.364 45.2402H199.172L199.158 43.7568H201.544C201.931 43.7568 202.253 43.6885 202.508 43.5518C202.763 43.415 202.954 43.2259 203.082 42.9844C203.214 42.7428 203.28 42.4671 203.28 42.1572C203.28 41.8245 203.216 41.5374 203.089 41.2959C202.961 41.0498 202.768 40.8607 202.508 40.7285C202.248 40.5964 201.92 40.5303 201.523 40.5303H199.787V49H197.907V39.0469ZM203.526 49L201.223 44.543L203.212 44.5361L205.543 48.9043V49H203.526ZM210.211 39.0469V49H208.331V39.0469H210.211ZM221.639 39.0469V49H219.752L215.521 42.0957V49H213.641V39.0469H215.521L219.766 45.958V39.0469H221.639ZM232.719 43.8525V47.7285C232.573 47.9154 232.343 48.1182 232.028 48.3369C231.718 48.5557 231.313 48.7448 230.811 48.9043C230.31 49.0592 229.695 49.1367 228.966 49.1367C228.332 49.1367 227.753 49.0319 227.229 48.8223C226.705 48.6081 226.254 48.2959 225.876 47.8857C225.498 47.4756 225.206 46.9743 225.001 46.3818C224.796 45.7894 224.693 45.1126 224.693 44.3516V43.6953C224.693 42.9342 224.789 42.2575 224.98 41.665C225.176 41.0726 225.454 40.5713 225.814 40.1611C226.179 39.751 226.614 39.4388 227.12 39.2246C227.63 39.0104 228.2 38.9033 228.829 38.9033C229.672 38.9033 230.365 39.0423 230.907 39.3203C231.454 39.5983 231.873 39.9811 232.165 40.4688C232.457 40.9518 232.639 41.5078 232.712 42.1367H230.88C230.83 41.7904 230.729 41.4873 230.579 41.2275C230.429 40.9632 230.214 40.7581 229.936 40.6123C229.663 40.4619 229.307 40.3867 228.87 40.3867C228.501 40.3867 228.175 40.4596 227.892 40.6055C227.61 40.7513 227.373 40.9632 227.181 41.2412C226.99 41.5192 226.844 41.8633 226.744 42.2734C226.648 42.6836 226.6 43.153 226.6 43.6816V44.3516C226.6 44.8848 226.655 45.3587 226.764 45.7734C226.874 46.1836 227.031 46.5299 227.236 46.8125C227.446 47.0905 227.703 47.3024 228.009 47.4482C228.318 47.5895 228.669 47.6602 229.061 47.6602C229.417 47.6602 229.711 47.6305 229.943 47.5713C230.18 47.5075 230.369 47.4323 230.511 47.3457C230.652 47.2591 230.761 47.1748 230.839 47.0928V45.2266H228.863V43.8525H232.719ZM245.991 46.416C245.991 46.2246 245.962 46.0537 245.902 45.9033C245.848 45.7484 245.745 45.6094 245.595 45.4863C245.449 45.3587 245.242 45.2357 244.973 45.1172C244.708 44.9941 244.367 44.8665 243.947 44.7344C243.482 44.5885 243.049 44.4245 242.648 44.2422C242.247 44.0599 241.894 43.848 241.589 43.6064C241.288 43.3649 241.053 43.0869 240.885 42.7725C240.716 42.4535 240.632 42.0843 240.632 41.665C240.632 41.2549 240.718 40.8812 240.892 40.5439C241.069 40.2067 241.32 39.9173 241.644 39.6758C241.967 39.4297 242.348 39.2406 242.785 39.1084C243.227 38.9762 243.715 38.9102 244.248 38.9102C244.986 38.9102 245.624 39.0446 246.162 39.3135C246.704 39.5824 247.124 39.9469 247.42 40.4072C247.716 40.8675 247.864 41.3848 247.864 41.959H245.991C245.991 41.6491 245.925 41.3757 245.793 41.1387C245.665 40.9017 245.469 40.7148 245.205 40.5781C244.945 40.4414 244.617 40.373 244.221 40.373C243.838 40.373 243.519 40.43 243.264 40.5439C243.013 40.6579 242.824 40.8128 242.696 41.0088C242.573 41.2048 242.512 41.4235 242.512 41.665C242.512 41.8473 242.555 42.0114 242.642 42.1572C242.728 42.2985 242.858 42.4329 243.031 42.5605C243.204 42.6836 243.419 42.7998 243.674 42.9092C243.934 43.014 244.234 43.1188 244.576 43.2236C245.123 43.3877 245.602 43.57 246.012 43.7705C246.426 43.971 246.771 44.1989 247.044 44.4541C247.322 44.7093 247.529 44.9964 247.666 45.3154C247.807 45.6344 247.878 45.9967 247.878 46.4023C247.878 46.8307 247.794 47.2135 247.625 47.5508C247.456 47.888 247.215 48.1751 246.9 48.4121C246.586 48.6491 246.208 48.8291 245.766 48.9521C245.328 49.0752 244.838 49.1367 244.296 49.1367C243.813 49.1367 243.334 49.0729 242.86 48.9453C242.391 48.8132 241.965 48.6172 241.582 48.3574C241.199 48.0931 240.894 47.7604 240.666 47.3594C240.438 46.9538 240.324 46.4798 240.324 45.9375H242.211C242.211 46.252 242.261 46.5208 242.361 46.7441C242.466 46.9629 242.612 47.1429 242.799 47.2842C242.99 47.4209 243.214 47.5212 243.469 47.585C243.724 47.6488 244 47.6807 244.296 47.6807C244.679 47.6807 244.993 47.6283 245.239 47.5234C245.49 47.4141 245.677 47.2637 245.8 47.0723C245.927 46.8809 245.991 46.6621 245.991 46.416ZM251.889 39.0469L254.077 43.6885L256.278 39.0469H258.342L255.034 45.3564V49H253.127V45.3564L249.811 39.0469H251.889ZM265.84 46.416C265.84 46.2246 265.81 46.0537 265.751 45.9033C265.696 45.7484 265.594 45.6094 265.444 45.4863C265.298 45.3587 265.09 45.2357 264.821 45.1172C264.557 44.9941 264.215 44.8665 263.796 44.7344C263.331 44.5885 262.898 44.4245 262.497 44.2422C262.096 44.0599 261.743 43.848 261.438 43.6064C261.137 43.3649 260.902 43.0869 260.734 42.7725C260.565 42.4535 260.481 42.0843 260.481 41.665C260.481 41.2549 260.567 40.8812 260.74 40.5439C260.918 40.2067 261.169 39.9173 261.492 39.6758C261.816 39.4297 262.196 39.2406 262.634 39.1084C263.076 38.9762 263.564 38.9102 264.097 38.9102C264.835 38.9102 265.473 39.0446 266.011 39.3135C266.553 39.5824 266.973 39.9469 267.269 40.4072C267.565 40.8675 267.713 41.3848 267.713 41.959H265.84C265.84 41.6491 265.774 41.3757 265.642 41.1387C265.514 40.9017 265.318 40.7148 265.054 40.5781C264.794 40.4414 264.466 40.373 264.07 40.373C263.687 40.373 263.368 40.43 263.113 40.5439C262.862 40.6579 262.673 40.8128 262.545 41.0088C262.422 41.2048 262.361 41.4235 262.361 41.665C262.361 41.8473 262.404 42.0114 262.49 42.1572C262.577 42.2985 262.707 42.4329 262.88 42.5605C263.053 42.6836 263.267 42.7998 263.523 42.9092C263.782 43.014 264.083 43.1188 264.425 43.2236C264.972 43.3877 265.45 43.57 265.861 43.7705C266.275 43.971 266.619 44.1989 266.893 44.4541C267.171 44.7093 267.378 44.9964 267.515 45.3154C267.656 45.6344 267.727 45.9967 267.727 46.4023C267.727 46.8307 267.642 47.2135 267.474 47.5508C267.305 47.888 267.064 48.1751 266.749 48.4121C266.435 48.6491 266.057 48.8291 265.614 48.9521C265.177 49.0752 264.687 49.1367 264.145 49.1367C263.662 49.1367 263.183 49.0729 262.709 48.9453C262.24 48.8132 261.814 48.6172 261.431 48.3574C261.048 48.0931 260.743 47.7604 260.515 47.3594C260.287 46.9538 260.173 46.4798 260.173 45.9375H262.06C262.06 46.252 262.11 46.5208 262.21 46.7441C262.315 46.9629 262.461 47.1429 262.648 47.2842C262.839 47.4209 263.062 47.5212 263.318 47.585C263.573 47.6488 263.849 47.6807 264.145 47.6807C264.528 47.6807 264.842 47.6283 265.088 47.5234C265.339 47.4141 265.526 47.2637 265.649 47.0723C265.776 46.8809 265.84 46.6621 265.84 46.416ZM274.848 39.0469V49H272.975V39.0469H274.848ZM277.938 39.0469V40.5303H269.92V39.0469H277.938ZM287.186 47.5234V49H281.895V47.5234H287.186ZM282.469 39.0469V49H280.589V39.0469H282.469ZM286.496 43.1553V44.5977H281.895V43.1553H286.496ZM287.165 39.0469V40.5303H281.895V39.0469H287.165ZM290.712 39.0469H292.339L295.06 46.5391L297.773 39.0469H299.407L295.709 49H294.403L290.712 39.0469ZM289.892 39.0469H291.484L291.771 45.9307V49H289.892V39.0469ZM298.628 39.0469H300.228V49H298.348V45.9307L298.628 39.0469Z" fill="white"/>
<defs>
<clipPath id="clip0_424_1016">
<rect width="48" height="28.4934" fill="white" transform="translate(30 30)"/>
</clipPath>
</defs>
</svg>
