<svg width="64" height="64" viewBox="0 0 64 64" fill="none" xmlns="http://www.w3.org/2000/svg">
<path d="M44.37 19.1257H19.563V19.1321C19.1511 19.1485 18.7615 19.3235 18.4757 19.6205C18.1899 19.9175 18.03 20.3135 18.0295 20.7257V59.1046C18.0302 59.5167 18.1902 59.9126 18.4759 60.2094C18.7617 60.5063 19.1512 60.6812 19.563 60.6976V60.7046H44.37C44.7944 60.7046 45.2013 60.536 45.5014 60.236C45.8014 59.9359 45.97 59.529 45.97 59.1046V20.7257C45.97 20.3014 45.8014 19.8944 45.5014 19.5944C45.2013 19.2943 44.7944 19.1257 44.37 19.1257ZM32.0379 59.0515C31.622 59.0515 31.2232 58.8863 30.9291 58.5922C30.6351 58.2982 30.4699 57.8993 30.4699 57.4835C30.4699 57.0676 30.6351 56.6688 30.9291 56.3747C31.2232 56.0807 31.622 55.9155 32.0379 55.9155C32.4537 55.9155 32.8525 56.0807 33.1466 56.3747C33.4407 56.6688 33.6059 57.0676 33.6059 57.4835C33.6059 57.8993 33.4407 58.2982 33.1466 58.5922C32.8525 58.8863 32.4537 59.0515 32.0379 59.0515ZM39.5982 54.3181H24.402V25.4976H39.5975V54.3181H39.5982Z" fill="#232635"/>
<path d="M44.5459 10.0454C44.679 9.87663 44.7511 9.66774 44.7504 9.45278C44.7497 9.23781 44.6763 9.0294 44.5421 8.86144L44.5574 8.84608L43.9181 8.20672L43.9174 8.20608L43.8675 8.15617L43.865 8.15872C37.3126 1.66016 26.697 1.67424 20.1645 8.20544C20.1549 8.21504 20.1523 8.22848 20.1427 8.23808L20.1376 8.23296L19.5264 8.84416L19.5245 8.84544L19.5232 8.84736L19.4477 8.92352L19.463 8.93888C19.3165 9.12029 19.2409 9.34878 19.2503 9.5818C19.2597 9.81482 19.3535 10.0365 19.5142 10.2054L19.5117 10.208L20.7392 11.4355L20.7558 11.4189C21.1078 11.6928 21.5898 11.6922 21.9398 11.415L21.9558 11.4304L22.6464 10.7405L22.6323 10.7264C22.6419 10.7168 22.6554 10.7142 22.665 10.7046C27.8189 5.55136 36.1914 5.53728 41.3664 10.6566L41.3606 10.6624L41.9725 11.2749V11.2755H41.9731L42.0499 11.353L42.0653 11.3376C42.2467 11.4841 42.4751 11.5597 42.7081 11.5504C42.941 11.5411 43.1627 11.4475 43.3318 11.287L43.3344 11.2896L43.3478 11.2762H43.3485V11.2755L44.48 10.144L44.5619 10.0621L44.5459 10.0454Z" fill="#232635"/>
<path d="M39.813 13.5904L39.8284 13.575L39.1378 12.8845L39.1353 12.887C35.1897 8.99711 28.8185 9.01247 24.8946 12.9357C24.885 12.9453 24.8825 12.9581 24.8735 12.9677L24.8677 12.9626L24.1772 13.6531L24.1925 13.6685C24.0458 13.8497 23.97 14.0782 23.9793 14.3113C23.9886 14.5443 24.0824 14.766 24.2431 14.935L24.2405 14.9376L25.4681 16.1651L25.4847 16.1485C25.8367 16.4224 26.3186 16.4218 26.6687 16.1446L26.6847 16.1606L27.3753 15.4707L27.3612 15.4566C27.3708 15.447 27.3842 15.4445 27.3938 15.4349C29.9391 12.8896 34.0658 12.8781 36.6329 15.3888L36.6297 15.392L37.2421 16.0045H37.2428L37.3202 16.0819L37.3356 16.0659C37.517 16.2124 37.7454 16.2881 37.9784 16.2788C38.2114 16.2695 38.433 16.1759 38.6021 16.0154L38.6047 16.0179L38.6181 16.0045L39.8322 14.7904L39.8156 14.7738C39.9491 14.6053 40.0216 14.3966 40.0211 14.1816C40.0207 13.9667 39.9473 13.7582 39.813 13.5904Z" fill="#232635"/>
</svg>
