<svg width="44" height="64" viewBox="0 0 44 64" fill="none" xmlns="http://www.w3.org/2000/svg">
<path d="M29.6801 24.7742C30.4543 24.7742 31.0995 25.0538 31.6156 25.6129C32.1317 26.172 32.3898 26.7957 32.3898 27.4839V60.5161C32.3898 61.2903 32.1317 61.957 31.6156 62.5161C31.0995 63.0753 30.4543 63.3548 29.6801 63.3548H13.164C12.3898 63.3548 11.7446 63.0753 11.2285 62.5161C10.7124 61.957 10.4543 61.2903 10.4543 60.5161V27.4839C10.4543 26.7957 10.7124 26.172 11.2285 25.6129C11.7446 25.0538 12.3898 24.7742 13.164 24.7742H29.6801ZM21.422 41.2903C22.9704 41.2903 24.2823 40.7527 25.3575 39.6774C26.4328 38.6021 26.9704 37.3118 26.9704 35.8064C26.9704 34.3011 26.4328 33.0107 25.3575 31.9355C24.2823 30.8602 22.9704 30.3226 21.422 30.3226C19.8737 30.3226 18.5618 30.8602 17.4866 31.9355C16.4113 33.0107 15.8737 34.3011 15.8737 35.8064C15.8737 37.3118 16.4113 38.6021 17.4866 39.6774C18.5618 40.7527 19.8737 41.2903 21.422 41.2903ZM7.74462 16.6452C11.5296 12.8602 16.0887 10.9677 21.422 10.9677C26.7554 10.9677 31.3145 12.8602 35.0995 16.6452L31.0995 20.5161C28.4328 17.8495 25.207 16.5161 21.422 16.5161C17.6371 16.5161 14.3683 17.8495 11.6156 20.5161L7.74462 16.6452ZM21.422 0C29.8521 0 36.9919 2.96774 42.8414 8.90323L38.9704 12.7742C34.1532 7.95699 28.3038 5.54839 21.422 5.54839C14.6263 5.54839 8.77688 7.95699 3.87365 12.7742L0.00268555 8.90323C5.93817 2.96774 13.078 0 21.422 0Z" fill="#FFFFFF"/>
</svg>
