<svg width="48" height="50" viewBox="0 0 48 50" fill="none" xmlns="http://www.w3.org/2000/svg">
<path d="M30 18.8125V3.34375H33V18.8125H30Z" fill="#FED138"/>
<path d="M36 18.8125V3.34375H39V18.8125H36Z" fill="#FED138"/>
<path d="M42 18.8125V3.34375H45V18.8125H42Z" fill="#FED138"/>
<path d="M24 31.1875C23.2071 31.2061 22.4188 31.0588 21.6827 30.7544C20.9466 30.4501 20.278 29.995 19.7172 29.4167C19.1564 28.8384 18.7151 28.1488 18.42 27.3897C18.1248 26.6306 17.982 25.8176 18 25C17.982 24.1824 18.1248 23.3694 18.42 22.6103C18.7151 21.8512 19.1564 21.1617 19.7172 20.5833C20.278 20.005 20.9466 19.5499 21.6827 19.2456C22.4188 18.9412 23.2071 18.7939 24 18.8125V15.7188C22.22 15.7188 20.4799 16.2631 18.9999 17.2829C17.5198 18.3028 16.3663 19.7523 15.6851 21.4482C15.0039 23.1441 14.8257 25.0103 15.1729 26.8107C15.5202 28.6111 16.3774 30.2648 17.636 31.5628C18.8947 32.8608 20.4984 33.7448 22.2442 34.1029C23.99 34.461 25.7996 34.2772 27.4442 33.5748C29.0887 32.8723 30.4943 31.6827 31.4832 30.1564C32.4722 28.6301 33 26.8357 33 25H30C30.018 25.8176 29.8752 26.6306 29.58 27.3897C29.2849 28.1488 28.8436 28.8384 28.2828 29.4167C27.722 29.995 27.0534 30.4501 26.3173 30.7544C25.5812 31.0588 24.7929 31.2061 24 31.1875V31.1875Z" fill="#FED138"/>
<path d="M43.3395 28.796L39.147 25L37.17 27.3265L41.358 31.1194L37.818 37.4431L32.6775 35.6487C31.4676 36.6941 30.0899 37.5133 28.6065 38.0695L27.54 43.5625H20.46L19.395 38.0711C17.9217 37.5067 16.5541 36.684 15.3525 35.6394L10.182 37.4431L6.642 31.1194L10.7295 27.4147C10.4499 25.815 10.4463 24.177 10.719 22.576L6.642 18.879L10.182 12.5569L15.3225 14.3513C16.5327 13.3052 17.911 12.4854 19.395 11.9289L20.46 6.4375H24V3.34375H20.46C19.7665 3.34382 19.0944 3.5917 18.5581 4.04519C18.0218 4.49869 17.6544 5.12979 17.5185 5.83113L16.7625 9.72616C16.0735 10.0668 15.4084 10.4565 14.772 10.8925L11.142 9.62561C10.4852 9.39626 9.77159 9.40889 9.1228 9.66134C8.47401 9.91379 7.93019 10.3904 7.584 11.0101L4.044 17.3337C3.69722 17.9529 3.56913 18.6769 3.68153 19.3825C3.79392 20.088 4.13986 20.7317 4.6605 21.204L7.557 23.829C7.5315 24.2188 7.5 24.6055 7.5 25C7.5 25.3991 7.515 25.7935 7.542 26.1849L4.662 28.796C4.14087 29.2679 3.79436 29.9114 3.68142 30.617C3.56847 31.3226 3.69607 32.0468 4.0425 32.6663L7.5825 38.9899C7.9288 39.6102 8.47313 40.0873 9.12257 40.3398C9.77201 40.5923 10.4863 40.6045 11.1435 40.3744L14.7945 39.0998C15.4235 39.5374 16.081 39.9297 16.7625 40.2738L17.517 44.1689C17.653 44.8705 18.0206 45.5018 18.5572 45.9553C19.0938 46.4088 19.7662 46.6565 20.46 46.6562H27.54C28.2335 46.6562 28.9056 46.4083 29.4419 45.9548C29.9782 45.5013 30.3456 44.8702 30.4815 44.1689L31.2375 40.2723C31.9264 39.9322 32.5915 39.543 33.228 39.1075L36.8565 40.3728C37.5133 40.6027 38.2272 40.5905 38.8763 40.3384C39.5254 40.0862 40.0695 39.6096 40.416 38.9899L43.956 32.6663C44.3028 32.0471 44.4309 31.3231 44.3185 30.6176C44.2061 29.912 43.8601 29.2683 43.3395 28.796Z" fill="#FED138"/>
</svg>
