<svg width="48" height="51" viewBox="0 0 48 51" fill="none" xmlns="http://www.w3.org/2000/svg">
<path d="M42 28.625H33C32.2046 28.6258 31.442 28.9553 30.8796 29.5412C30.3172 30.1271 30.0008 30.9215 30 31.75V34.875H21.621L15 27.9781V19.25H18C18.7955 19.2492 19.5581 18.9197 20.1205 18.3338C20.6829 17.7479 20.9993 16.9535 21 16.125V6.75C20.9993 5.92145 20.6829 5.12708 20.1205 4.5412C19.5581 3.95533 18.7955 3.62583 18 3.625H9.00005C8.20464 3.62583 7.44204 3.95533 6.8796 4.5412C6.31717 5.12708 6.00084 5.92145 6.00005 6.75V16.125C6.00084 16.9535 6.31717 17.7479 6.8796 18.3338C7.44204 18.9197 8.20464 19.2492 9.00005 19.25H12V27.9781L4.93955 35.3328C4.65834 35.6258 4.50037 36.0232 4.50037 36.4375C4.50037 36.8518 4.65834 37.2492 4.93955 37.5422L12.4395 45.3547C12.7208 45.6476 13.1023 45.8122 13.5 45.8122C13.8978 45.8122 14.2793 45.6476 14.5605 45.3547L21.621 38H30V41.125C30.0008 41.9535 30.3172 42.7479 30.8796 43.3338C31.442 43.9197 32.2046 44.2492 33 44.25H42C42.7955 44.2492 43.5581 43.9197 44.1205 43.3338C44.6829 42.7479 44.9993 41.9535 45 41.125V31.75C44.9993 30.9215 44.6829 30.1271 44.1205 29.5412C43.5581 28.9553 42.7955 28.6258 42 28.625ZM9.00005 6.75H18V16.125H9.00005V6.75ZM13.5 42.0406L8.12105 36.4375L13.5 30.8344L18.879 36.4375L13.5 42.0406ZM33 41.125V31.75H42V41.125H33Z" fill="white"/>
</svg>
