<svg width="52" height="64" viewBox="0 0 52 64" fill="none" xmlns="http://www.w3.org/2000/svg">
<path d="M50.4223 8.20085L26.7866 0.146071C26.5015 0.0486903 26.1189 0 25.7363 0C25.3538 0 24.9712 0.0486903 24.686 0.146071L1.05032 8.20085C0.472992 8.39561 0 9.06336 0 9.67547V43.2301C0 43.8422 0.396479 44.6491 0.876427 45.0316L24.8529 63.7148C25.0964 63.9026 25.4094 64 25.7294 64C26.0493 64 26.3693 63.9026 26.6058 63.7148L50.5823 45.0316C51.0623 44.656 51.4588 43.8491 51.4588 43.2301V9.67547C51.4727 9.06336 50.9997 8.40257 50.4223 8.20085ZM33.7215 34.9179C30.348 38.2915 25.166 38.7575 21.2986 36.3161L15.9078 41.7068C15.8033 41.8103 15.662 41.8684 15.5148 41.8684C15.3677 41.8684 15.2264 41.8103 15.1218 41.7068L12.7569 39.3418C12.6533 39.2372 12.5952 39.096 12.5952 38.9488C12.5952 38.8016 12.6533 38.6604 12.7569 38.5558L18.1476 33.1651C15.7061 29.2907 16.1722 24.1156 19.5457 20.7421C23.4618 16.826 29.8055 16.826 33.7215 20.7421C37.6376 24.6582 37.6376 31.0018 33.7215 34.9179ZM22.6939 31.7691C23.2098 32.2931 23.8243 32.7098 24.502 32.9952C25.1797 33.2806 25.9072 33.429 26.6426 33.4318C27.378 33.4347 28.1066 33.292 28.7865 33.0119C29.4664 32.7318 30.0842 32.3198 30.6041 31.7998C31.1241 31.2798 31.536 30.6621 31.816 29.9821C32.0961 29.3022 32.2387 28.5735 32.2358 27.8382C32.2329 27.1028 32.0844 26.3753 31.799 25.6976C31.5135 25.0199 31.0968 24.4054 30.5727 23.8896C30.0568 23.3656 29.4423 22.9488 28.7645 22.6634C28.0868 22.3781 27.3593 22.2297 26.624 22.2268C25.8886 22.2239 25.16 22.3667 24.48 22.6468C23.8001 22.9269 23.1824 23.3388 22.6624 23.8588C22.1425 24.3788 21.7306 24.9966 21.4505 25.6765C21.1705 26.3565 21.0278 27.0851 21.0308 27.8205C21.0337 28.5558 21.1821 29.2833 21.4676 29.961C21.753 30.6387 22.1698 31.2532 22.6939 31.7691Z" fill="#232635"/>
</svg>
