<svg width="64" height="64" viewBox="0 0 64 64" fill="none" xmlns="http://www.w3.org/2000/svg">
<path d="M40 32C40 28.5334 37.76 25.6 34.6667 24.48V18.1867C37.76 17.0667 40 14.1334 40 10.6667C40 8.54496 39.1571 6.51012 37.6569 5.00983C36.1566 3.50954 34.1217 2.66669 32 2.66669C29.8783 2.66669 27.8434 3.50954 26.3431 5.00983C24.8429 6.51012 24 8.54496 24 10.6667C24 14.1334 26.24 17.0667 29.3333 18.1867V24.5067C26.24 25.6 24 28.5334 24 32C24 35.4667 26.24 38.4 29.3333 39.52V45.8134C26.24 46.9334 24 49.8667 24 53.3334C24 55.4551 24.8429 57.4899 26.3431 58.9902C27.8434 60.4905 29.8783 61.3334 32 61.3334C34.1217 61.3334 36.1566 60.4905 37.6569 58.9902C39.1571 57.4899 40 55.4551 40 53.3334C40 49.8667 37.76 46.9334 34.6667 45.8134V39.52C37.76 38.4 40 35.4667 40 32ZM32 8.00002C32.7072 8.00002 33.3855 8.28097 33.8856 8.78107C34.3857 9.28117 34.6667 9.95944 34.6667 10.6667C34.6667 11.3739 34.3857 12.0522 33.8856 12.5523C33.3855 13.0524 32.7072 13.3334 32 13.3334C31.2928 13.3334 30.6145 13.0524 30.1144 12.5523C29.6143 12.0522 29.3333 11.3739 29.3333 10.6667C29.3333 9.95944 29.6143 9.28117 30.1144 8.78107C30.6145 8.28097 31.2928 8.00002 32 8.00002ZM32 56C31.2928 56 30.6145 55.7191 30.1144 55.219C29.6143 54.7189 29.3333 54.0406 29.3333 53.3334C29.3333 52.6261 29.6143 51.9478 30.1144 51.4477C30.6145 50.9476 31.2928 50.6667 32 50.6667C32.7072 50.6667 33.3855 50.9476 33.8856 51.4477C34.3857 51.9478 34.6667 52.6261 34.6667 53.3334C34.6667 54.0406 34.3857 54.7189 33.8856 55.219C33.3855 55.7191 32.7072 56 32 56Z" fill="#232635"/>
</svg>
