<svg width="64" height="64" viewBox="0 0 64 64" fill="none" xmlns="http://www.w3.org/2000/svg">
<path d="M56.0001 36H44.0001C42.9395 36.0011 41.9227 36.4228 41.1728 37.1727C40.4229 37.9227 40.0011 38.9395 40.0001 40V44H28.8281L20.0001 35.172V24H24.0001C25.0606 23.9989 26.0774 23.5772 26.8273 22.8273C27.5772 22.0773 27.999 21.0605 28.0001 20V8C27.999 6.93946 27.5772 5.92266 26.8273 5.17274C26.0774 4.42283 25.0606 4.00106 24.0001 4H12.0001C10.9395 4.00106 9.92272 4.42283 9.1728 5.17274C8.42289 5.92266 8.00112 6.93946 8.00006 8V20C8.00112 21.0605 8.42289 22.0773 9.1728 22.8273C9.92272 23.5772 10.9395 23.9989 12.0001 24H16.0001V35.172L6.58606 44.586C6.21112 44.9611 6.00049 45.4697 6.00049 46C6.00049 46.5303 6.21112 47.0389 6.58606 47.414L16.5861 57.414C16.9611 57.7889 17.4697 57.9996 18.0001 57.9996C18.5304 57.9996 19.039 57.7889 19.4141 57.414L28.8281 48H40.0001V52C40.0011 53.0605 40.4229 54.0773 41.1728 54.8273C41.9227 55.5772 42.9395 55.9989 44.0001 56H56.0001C57.0606 55.9989 58.0774 55.5772 58.8273 54.8273C59.5772 54.0773 59.999 53.0605 60.0001 52V40C59.999 38.9395 59.5772 37.9227 58.8273 37.1727C58.0774 36.4228 57.0606 36.0011 56.0001 36ZM12.0001 8H24.0001V20H12.0001V8ZM18.0001 53.172L10.8281 46L18.0001 38.828L25.1721 46L18.0001 53.172ZM44.0001 52V40H56.0001V52H44.0001Z" fill="#232635"/>
</svg>
