<svg width="48" height="50" viewBox="0 0 48 50" fill="none" xmlns="http://www.w3.org/2000/svg">
<path d="M30 18.75V3.125H33V18.75H30Z" fill="white"/>
<path d="M36 18.75V3.125H39V18.75H36Z" fill="white"/>
<path d="M42 18.75V3.125H45V18.75H42Z" fill="white"/>
<path d="M24 31.25C23.2071 31.2688 22.4188 31.12 21.6827 30.8125C20.9466 30.5051 20.278 30.0454 19.7172 29.4613C19.1564 28.8771 18.7151 28.1806 18.42 27.4138C18.1248 26.6471 17.982 25.8259 18 25C17.982 24.1741 18.1248 23.353 18.42 22.5862C18.7151 21.8194 19.1564 21.1229 19.7172 20.5387C20.278 19.9546 20.9466 19.4949 21.6827 19.1875C22.4188 18.88 23.2071 18.7312 24 18.75V15.625C22.22 15.625 20.4799 16.1748 18.9999 17.205C17.5198 18.2351 16.3663 19.6993 15.6851 21.4123C15.0039 23.1254 14.8257 25.0104 15.1729 26.829C15.5202 28.6475 16.3774 30.318 17.636 31.6291C18.8947 32.9402 20.4984 33.8331 22.2442 34.1949C23.99 34.5566 25.7996 34.3709 27.4442 33.6614C29.0887 32.9518 30.4943 31.7502 31.4832 30.2085C32.4722 28.6668 33 26.8542 33 25H30C30.018 25.8259 29.8752 26.6471 29.58 27.4138C29.2849 28.1806 28.8436 28.8771 28.2828 29.4613C27.722 30.0454 27.0534 30.5051 26.3173 30.8125C25.5812 31.12 24.7929 31.2688 24 31.25V31.25Z" fill="white"/>
<path d="M43.3395 28.8344L39.147 25L37.17 27.35L41.358 31.1812L37.818 37.5688L32.6775 35.7563C31.4676 36.8122 30.0899 37.6397 28.6065 38.2016L27.54 43.75H20.46L19.395 38.2031C17.9217 37.633 16.5541 36.8021 15.3525 35.7469L10.182 37.5688L6.642 31.1812L10.7295 27.4391C10.4499 25.8232 10.4463 24.1687 10.719 22.5516L6.642 18.8172L10.182 12.4312L15.3225 14.2438C16.5327 13.1871 17.911 12.359 19.395 11.7969L20.46 6.25H24V3.125H20.46C19.7665 3.12508 19.0944 3.37545 18.5581 3.83353C18.0218 4.2916 17.6544 4.92908 17.5185 5.6375L16.7625 9.57187C16.0735 9.91596 15.4084 10.3096 14.772 10.75L11.142 9.47031C10.4852 9.23865 9.77159 9.25141 9.1228 9.50641C8.47401 9.76141 7.93019 10.2429 7.584 10.8687L4.044 17.2562C3.69722 17.8817 3.56913 18.613 3.68153 19.3257C3.79392 20.0384 4.13986 20.6886 4.6605 21.1656L7.557 23.8172C7.5315 24.2109 7.5 24.6016 7.5 25C7.5 25.4031 7.515 25.8016 7.542 26.1969L4.662 28.8344C4.14087 29.311 3.79436 29.961 3.68142 30.6737C3.56847 31.3865 3.69607 32.118 4.0425 32.7437L7.5825 39.1313C7.9288 39.7578 8.47313 40.2397 9.12257 40.4948C9.77201 40.7498 10.4863 40.7622 11.1435 40.5297L14.7945 39.2422C15.4235 39.6843 16.081 40.0805 16.7625 40.4281L17.517 44.3625C17.653 45.0712 18.0206 45.7089 18.5572 46.167C19.0938 46.6251 19.7662 46.8753 20.46 46.875H27.54C28.2335 46.8749 28.9056 46.6245 29.4419 46.1665C29.9782 45.7084 30.3456 45.0709 30.4815 44.3625L31.2375 40.4266C31.9264 40.083 32.5915 39.6898 33.228 39.25L36.8565 40.5281C37.5133 40.7603 38.2272 40.748 38.8763 40.4933C39.5254 40.2386 40.0695 39.7572 40.416 39.1313L43.956 32.7437C44.3028 32.1183 44.4309 31.387 44.3185 30.6743C44.2061 29.9616 43.8601 29.3114 43.3395 28.8344Z" fill="white"/>
</svg>
