<svg width="48" height="50" viewBox="0 0 48 50" fill="none" xmlns="http://www.w3.org/2000/svg">
<path d="M34 25C34.5304 25 35.0391 25.2195 35.4142 25.6102C35.7892 26.0009 36 26.5308 36 27.0833V45.8333H32V29.1667H16V45.8333H12V27.0833C12 26.5308 12.2107 26.0009 12.5857 25.6102C12.9608 25.2195 13.4695 25 14 25H34ZM24 33.3333V37.5H20V33.3333H24ZM24 12.5C26.2288 12.4993 28.4139 13.1453 30.3101 14.3654C32.2064 15.5856 33.7389 17.3318 34.736 19.4083L31.156 21.2729C30.4919 19.8878 29.4705 18.7229 28.2063 17.9086C26.9422 17.0944 25.4853 16.6631 23.999 16.6631C22.5127 16.6631 21.0557 17.0944 19.7916 17.9086C18.5275 18.7229 17.5061 19.8878 16.842 21.2729L13.264 19.4083C14.261 17.3318 15.7936 15.5856 17.6898 14.3654C19.5861 13.1453 21.7711 12.4993 24 12.5V12.5ZM24 4.16667C27.7146 4.16583 31.3561 5.24263 34.5162 7.27639C37.6764 9.31016 40.2304 12.2205 41.892 15.6812L38.314 17.5458C36.9848 14.777 34.9416 12.4485 32.4134 10.8214C29.8851 9.19419 26.9718 8.33266 24 8.33333C21.0281 8.33266 18.1148 9.19419 15.5865 10.8214C13.0583 12.4485 11.0151 14.777 9.68596 17.5458L6.10596 15.6812C7.76767 12.2202 10.322 9.30963 13.4825 7.27585C16.6431 5.24206 20.285 4.16544 24 4.16667V4.16667Z" fill="white"/>
</svg>
