<svg fill="none" xmlns="http://www.w3.org/2000/svg">
<rect x="0.588135" y="30" width="1" height="12" fill="white"/>
<rect x="21.5881" y="30" width="1" height="8" fill="white"/>
<rect x="10.5881" y="30" width="1" height="6" fill="white"/>
<rect x="32.5881" y="30" width="1" height="6" fill="white"/>
<rect x="54.5881" y="30" width="1" height="6" fill="white"/>
<rect x="98.5881" y="30" width="1" height="6" fill="white"/>
<rect x="76.5881" y="30" width="1" height="6" fill="white"/>
<rect x="65.5881" y="30" width="1" height="8" fill="white"/>
<rect x="109.588" y="30" width="1" height="8" fill="white"/>
<rect x="153.588" y="30" width="1" height="8" fill="white"/>
<rect x="241.588" y="30" width="1" height="8" fill="white"/>
<rect x="197.588" y="30" width="1" height="8" fill="white"/>
<rect x="43.5881" y="30" width="1" height="12" fill="white"/>
<rect x="131.588" y="30" width="1" height="12" fill="white"/>
<rect x="175.588" y="30" width="1" height="12" fill="white"/>
<rect x="219.588" y="30" width="1" height="12" fill="white"/>
<rect x="263.588" y="30" width="1" height="12" fill="white"/>
<rect x="87.5881" y="30" width="1" height="12" fill="white"/>
<rect x="285.588" y="30" width="1" height="8" fill="white"/>
<rect x="120.588" y="30" width="1" height="6" fill="white"/>
<rect x="142.588" y="30" width="1" height="6" fill="white"/>
<rect x="208.588" y="30" width="1" height="6" fill="white"/>
<rect x="230.588" y="30" width="1" height="6" fill="white"/>
<rect x="252.588" y="30" width="1" height="6" fill="white"/>
<rect x="274.588" y="30" width="1" height="6" fill="white"/>
<rect x="296.588" y="30" width="1" height="6" fill="white"/>
<rect x="186.588" y="30" width="1" height="6" fill="white"/>
<rect x="164.588" y="30" width="1" height="6" fill="white"/>
<path d="M43.1638 46.4219V55H42.0798V47.7754L39.8942 48.5723V47.5938L42.9938 46.4219H43.1638ZM52.1867 50.0547V51.3555C52.1867 52.0547 52.1242 52.6445 51.9992 53.125C51.8742 53.6055 51.6945 53.9922 51.4602 54.2852C51.2258 54.5781 50.9426 54.791 50.6105 54.9238C50.2824 55.0527 49.9113 55.1172 49.4973 55.1172C49.1691 55.1172 48.8664 55.0762 48.5891 54.9941C48.3117 54.9121 48.0617 54.7812 47.8391 54.6016C47.6203 54.418 47.4328 54.1797 47.2766 53.8867C47.1203 53.5938 47.0012 53.2383 46.9191 52.8203C46.8371 52.4023 46.7961 51.9141 46.7961 51.3555V50.0547C46.7961 49.3555 46.8586 48.7695 46.9836 48.2969C47.1125 47.8242 47.2941 47.4453 47.5285 47.1602C47.7629 46.8711 48.0441 46.6641 48.3723 46.5391C48.7043 46.4141 49.0754 46.3516 49.4855 46.3516C49.8176 46.3516 50.1223 46.3926 50.3996 46.4746C50.6809 46.5527 50.9309 46.6797 51.1496 46.8555C51.3684 47.0273 51.5539 47.2578 51.7063 47.5469C51.8625 47.832 51.9816 48.1816 52.0637 48.5957C52.1457 49.0098 52.1867 49.4961 52.1867 50.0547ZM51.0969 51.5312V49.873C51.0969 49.4902 51.0734 49.1543 51.0266 48.8652C50.9836 48.5723 50.9191 48.3223 50.8332 48.1152C50.7473 47.9082 50.6379 47.7402 50.5051 47.6113C50.3762 47.4824 50.2258 47.3887 50.0539 47.3301C49.8859 47.2676 49.6965 47.2363 49.4855 47.2363C49.2277 47.2363 48.9992 47.2852 48.8 47.3828C48.6008 47.4766 48.4328 47.627 48.2961 47.834C48.1633 48.041 48.0617 48.3125 47.9914 48.6484C47.9211 48.9844 47.8859 49.3926 47.8859 49.873V51.5312C47.8859 51.9141 47.9074 52.252 47.9504 52.5449C47.9973 52.8379 48.0656 53.0918 48.1555 53.3066C48.2453 53.5176 48.3547 53.6914 48.4836 53.8281C48.6125 53.9648 48.7609 54.0664 48.9289 54.1328C49.1008 54.1953 49.2902 54.2266 49.4973 54.2266C49.7629 54.2266 49.9953 54.1758 50.1945 54.0742C50.3938 53.9727 50.5598 53.8145 50.6926 53.5996C50.8293 53.3809 50.9309 53.1016 50.9973 52.7617C51.0637 52.418 51.0969 52.0078 51.0969 51.5312Z" fill="white"/>
<path d="M65.8107 46.4219V55H64.7267V47.7754L62.5412 48.5723V47.5938L65.6408 46.4219H65.8107ZM70.8493 50.9395L69.9821 50.7168L70.4099 46.4688H74.7868V47.4707H71.3298L71.072 49.791C71.2282 49.7012 71.4255 49.6172 71.6638 49.5391C71.906 49.4609 72.1833 49.4219 72.4958 49.4219C72.8903 49.4219 73.2438 49.4902 73.5563 49.627C73.8688 49.7598 74.1345 49.9512 74.3532 50.2012C74.5759 50.4512 74.7458 50.752 74.863 51.1035C74.9802 51.4551 75.0388 51.8477 75.0388 52.2812C75.0388 52.6914 74.9821 53.0684 74.8688 53.4121C74.7595 53.7559 74.5935 54.0566 74.3708 54.3145C74.1481 54.5684 73.8669 54.7656 73.5271 54.9062C73.1911 55.0469 72.7946 55.1172 72.3376 55.1172C71.9938 55.1172 71.6677 55.0703 71.3591 54.9766C71.0544 54.8789 70.781 54.7324 70.5388 54.5371C70.3005 54.3379 70.1052 54.0918 69.9528 53.7988C69.8044 53.502 69.7106 53.1543 69.6716 52.7559H70.7028C70.7497 53.0762 70.8435 53.3457 70.9841 53.5645C71.1247 53.7832 71.3083 53.9492 71.5349 54.0625C71.7653 54.1719 72.0329 54.2266 72.3376 54.2266C72.5954 54.2266 72.8239 54.1816 73.0231 54.0918C73.2224 54.002 73.3903 53.873 73.5271 53.7051C73.6638 53.5371 73.7673 53.334 73.8376 53.0957C73.9118 52.8574 73.9489 52.5898 73.9489 52.293C73.9489 52.0234 73.9118 51.7734 73.8376 51.543C73.7634 51.3125 73.6521 51.1113 73.5036 50.9395C73.3591 50.7676 73.1813 50.6348 72.9704 50.541C72.7595 50.4434 72.5173 50.3945 72.2438 50.3945C71.8806 50.3945 71.6052 50.4434 71.4177 50.541C71.2341 50.6387 71.0446 50.7715 70.8493 50.9395Z" fill="white"/>
<path d="M21.9403 50.9395L21.0731 50.7168L21.5008 46.4688H25.8778V47.4707H22.4207L22.1629 49.791C22.3192 49.7012 22.5164 49.6172 22.7547 49.5391C22.9969 49.4609 23.2742 49.4219 23.5867 49.4219C23.9813 49.4219 24.3348 49.4902 24.6473 49.627C24.9598 49.7598 25.2254 49.9512 25.4442 50.2012C25.6668 50.4512 25.8367 50.752 25.9539 51.1035C26.0711 51.4551 26.1297 51.8477 26.1297 52.2812C26.1297 52.6914 26.0731 53.0684 25.9598 53.4121C25.8504 53.7559 25.6844 54.0566 25.4617 54.3145C25.2391 54.5684 24.9578 54.7656 24.618 54.9062C24.282 55.0469 23.8856 55.1172 23.4285 55.1172C23.0848 55.1172 22.7586 55.0703 22.45 54.9766C22.1453 54.8789 21.8719 54.7324 21.6297 54.5371C21.3914 54.3379 21.1961 54.0918 21.0438 53.7988C20.8953 53.502 20.8016 53.1543 20.7625 52.7559H21.7938C21.8406 53.0762 21.9344 53.3457 22.075 53.5645C22.2156 53.7832 22.3992 53.9492 22.6258 54.0625C22.8563 54.1719 23.1238 54.2266 23.4285 54.2266C23.6863 54.2266 23.9149 54.1816 24.1141 54.0918C24.3133 54.002 24.4813 53.873 24.618 53.7051C24.7547 53.5371 24.8582 53.334 24.9285 53.0957C25.0028 52.8574 25.0399 52.5898 25.0399 52.293C25.0399 52.0234 25.0028 51.7734 24.9285 51.543C24.8543 51.3125 24.743 51.1113 24.5945 50.9395C24.45 50.7676 24.2723 50.6348 24.0613 50.541C23.8504 50.4434 23.6082 50.3945 23.3348 50.3945C22.9715 50.3945 22.6961 50.4434 22.5086 50.541C22.325 50.6387 22.1356 50.7715 21.9403 50.9395Z" fill="white"/>
<path d="M90.4852 54.1094V55H84.9012V54.2207L87.6961 51.1094C88.0399 50.7266 88.3055 50.4023 88.493 50.1367C88.6844 49.8672 88.8172 49.627 88.8914 49.416C88.9695 49.2012 89.0086 48.9824 89.0086 48.7598C89.0086 48.4785 88.95 48.2246 88.8328 47.998C88.7195 47.7676 88.5516 47.584 88.3289 47.4473C88.1063 47.3105 87.8367 47.2422 87.5203 47.2422C87.1414 47.2422 86.825 47.3164 86.5711 47.4648C86.3211 47.6094 86.1336 47.8125 86.0086 48.0742C85.8836 48.3359 85.8211 48.6367 85.8211 48.9766H84.7371C84.7371 48.4961 84.8426 48.0566 85.0535 47.6582C85.2645 47.2598 85.577 46.9434 85.991 46.709C86.4051 46.4707 86.9149 46.3516 87.5203 46.3516C88.0594 46.3516 88.5203 46.4473 88.9031 46.6387C89.2859 46.8262 89.5789 47.0918 89.782 47.4355C89.9891 47.7754 90.0926 48.1738 90.0926 48.6309C90.0926 48.8809 90.0496 49.1348 89.9637 49.3926C89.8816 49.6465 89.7664 49.9004 89.618 50.1543C89.4734 50.4082 89.3035 50.6582 89.1082 50.9043C88.9168 51.1504 88.7117 51.3926 88.493 51.6309L86.2078 54.1094H90.4852ZM97.4808 50.0547V51.3555C97.4808 52.0547 97.4183 52.6445 97.2933 53.125C97.1683 53.6055 96.9886 53.9922 96.7542 54.2852C96.5198 54.5781 96.2366 54.791 95.9046 54.9238C95.5765 55.0527 95.2054 55.1172 94.7913 55.1172C94.4632 55.1172 94.1605 55.0762 93.8831 54.9941C93.6058 54.9121 93.3558 54.7812 93.1331 54.6016C92.9144 54.418 92.7269 54.1797 92.5706 53.8867C92.4144 53.5938 92.2952 53.2383 92.2132 52.8203C92.1312 52.4023 92.0902 51.9141 92.0902 51.3555V50.0547C92.0902 49.3555 92.1527 48.7695 92.2777 48.2969C92.4066 47.8242 92.5882 47.4453 92.8226 47.1602C93.057 46.8711 93.3382 46.6641 93.6663 46.5391C93.9984 46.4141 94.3695 46.3516 94.7796 46.3516C95.1116 46.3516 95.4163 46.3926 95.6937 46.4746C95.9749 46.5527 96.2249 46.6797 96.4437 46.8555C96.6624 47.0273 96.848 47.2578 97.0003 47.5469C97.1566 47.832 97.2757 48.1816 97.3577 48.5957C97.4398 49.0098 97.4808 49.4961 97.4808 50.0547ZM96.3909 51.5312V49.873C96.3909 49.4902 96.3675 49.1543 96.3206 48.8652C96.2777 48.5723 96.2132 48.3223 96.1273 48.1152C96.0413 47.9082 95.932 47.7402 95.7991 47.6113C95.6702 47.4824 95.5198 47.3887 95.348 47.3301C95.18 47.2676 94.9906 47.2363 94.7796 47.2363C94.5218 47.2363 94.2933 47.2852 94.0941 47.3828C93.8948 47.4766 93.7269 47.627 93.5902 47.834C93.4573 48.041 93.3558 48.3125 93.2855 48.6484C93.2152 48.9844 93.18 49.3926 93.18 49.873V51.5312C93.18 51.9141 93.2015 52.252 93.2445 52.5449C93.2913 52.8379 93.3597 53.0918 93.4495 53.3066C93.5394 53.5176 93.6488 53.6914 93.7777 53.8281C93.9066 53.9648 94.055 54.0664 94.223 54.1328C94.3948 54.1953 94.5843 54.2266 94.7913 54.2266C95.057 54.2266 95.2894 54.1758 95.4886 54.0742C95.6878 53.9727 95.8538 53.8145 95.9866 53.5996C96.1234 53.3809 96.2249 53.1016 96.2913 52.7617C96.3577 52.418 96.3909 52.0078 96.3909 51.5312Z" fill="white"/>
<path d="M113.132 54.1094V55H107.548V54.2207L110.343 51.1094C110.687 50.7266 110.953 50.4023 111.14 50.1367C111.331 49.8672 111.464 49.627 111.539 49.416C111.617 49.2012 111.656 48.9824 111.656 48.7598C111.656 48.4785 111.597 48.2246 111.48 47.998C111.367 47.7676 111.199 47.584 110.976 47.4473C110.753 47.3105 110.484 47.2422 110.167 47.2422C109.789 47.2422 109.472 47.3164 109.218 47.4648C108.968 47.6094 108.781 47.8125 108.656 48.0742C108.531 48.3359 108.468 48.6367 108.468 48.9766H107.384C107.384 48.4961 107.49 48.0566 107.701 47.6582C107.912 47.2598 108.224 46.9434 108.638 46.709C109.052 46.4707 109.562 46.3516 110.167 46.3516C110.706 46.3516 111.167 46.4473 111.55 46.6387C111.933 46.8262 112.226 47.0918 112.429 47.4355C112.636 47.7754 112.74 48.1738 112.74 48.6309C112.74 48.8809 112.697 49.1348 112.611 49.3926C112.529 49.6465 112.414 49.9004 112.265 50.1543C112.121 50.4082 111.951 50.6582 111.755 50.9043C111.564 51.1504 111.359 51.3926 111.14 51.6309L108.855 54.1094H113.132ZM116.144 50.9395L115.276 50.7168L115.704 46.4688H120.081V47.4707H116.624L116.366 49.791C116.522 49.7012 116.72 49.6172 116.958 49.5391C117.2 49.4609 117.477 49.4219 117.79 49.4219C118.185 49.4219 118.538 49.4902 118.851 49.627C119.163 49.7598 119.429 49.9512 119.647 50.2012C119.87 50.4512 120.04 50.752 120.157 51.1035C120.274 51.4551 120.333 51.8477 120.333 52.2812C120.333 52.6914 120.276 53.0684 120.163 53.4121C120.054 53.7559 119.888 54.0566 119.665 54.3145C119.442 54.5684 119.161 54.7656 118.821 54.9062C118.485 55.0469 118.089 55.1172 117.632 55.1172C117.288 55.1172 116.962 55.0703 116.653 54.9766C116.349 54.8789 116.075 54.7324 115.833 54.5371C115.595 54.3379 115.399 54.0918 115.247 53.7988C115.099 53.502 115.005 53.1543 114.966 52.7559H115.997C116.044 53.0762 116.138 53.3457 116.278 53.5645C116.419 53.7832 116.602 53.9492 116.829 54.0625C117.06 54.1719 117.327 54.2266 117.632 54.2266C117.89 54.2266 118.118 54.1816 118.317 54.0918C118.517 54.002 118.685 53.873 118.821 53.7051C118.958 53.5371 119.061 53.334 119.132 53.0957C119.206 52.8574 119.243 52.5898 119.243 52.293C119.243 52.0234 119.206 51.7734 119.132 51.543C119.058 51.3125 118.946 51.1113 118.798 50.9395C118.653 50.7676 118.476 50.6348 118.265 50.541C118.054 50.4434 117.811 50.3945 117.538 50.3945C117.175 50.3945 116.899 50.4434 116.712 50.541C116.528 50.6387 116.339 50.7715 116.144 50.9395Z" fill="white"/>
<path d="M131.771 50.2012H132.545C132.924 50.2012 133.236 50.1387 133.482 50.0137C133.732 49.8848 133.918 49.7109 134.039 49.4922C134.164 49.2695 134.226 49.0195 134.226 48.7422C134.226 48.4141 134.172 48.1387 134.062 47.916C133.953 47.6934 133.789 47.5254 133.57 47.4121C133.351 47.2988 133.074 47.2422 132.738 47.2422C132.434 47.2422 132.164 47.3027 131.93 47.4238C131.699 47.541 131.518 47.709 131.385 47.9277C131.256 48.1465 131.191 48.4043 131.191 48.7012H130.107C130.107 48.2676 130.217 47.873 130.435 47.5176C130.654 47.1621 130.961 46.8789 131.355 46.668C131.754 46.457 132.215 46.3516 132.738 46.3516C133.254 46.3516 133.705 46.4434 134.092 46.627C134.478 46.8066 134.779 47.0762 134.994 47.4355C135.209 47.791 135.316 48.2344 135.316 48.7656C135.316 48.9805 135.266 49.2109 135.164 49.457C135.066 49.6992 134.912 49.9258 134.701 50.1367C134.494 50.3477 134.225 50.5215 133.893 50.6582C133.56 50.791 133.162 50.8574 132.697 50.8574H131.771V50.2012ZM131.771 51.0918V50.4414H132.697C133.24 50.4414 133.689 50.5059 134.045 50.6348C134.4 50.7637 134.68 50.9355 134.883 51.1504C135.09 51.3652 135.234 51.6016 135.316 51.8594C135.402 52.1133 135.445 52.3672 135.445 52.6211C135.445 53.0195 135.377 53.373 135.24 53.6816C135.107 53.9902 134.918 54.252 134.672 54.4668C134.43 54.6816 134.144 54.8438 133.816 54.9531C133.488 55.0625 133.131 55.1172 132.744 55.1172C132.373 55.1172 132.023 55.0645 131.695 54.959C131.371 54.8535 131.084 54.7012 130.834 54.502C130.584 54.2988 130.389 54.0508 130.248 53.7578C130.107 53.4609 130.037 53.123 130.037 52.7441H131.121C131.121 53.041 131.185 53.3008 131.314 53.5234C131.447 53.7461 131.635 53.9199 131.877 54.0449C132.123 54.166 132.412 54.2266 132.744 54.2266C133.076 54.2266 133.361 54.1699 133.6 54.0566C133.842 53.9395 134.027 53.7637 134.156 53.5293C134.289 53.2949 134.355 53 134.355 52.6445C134.355 52.2891 134.281 51.998 134.133 51.7715C133.984 51.541 133.773 51.3711 133.5 51.2617C133.23 51.1484 132.912 51.0918 132.545 51.0918H131.771ZM142.775 50.0547V51.3555C142.775 52.0547 142.712 52.6445 142.587 53.125C142.462 53.6055 142.283 53.9922 142.048 54.2852C141.814 54.5781 141.531 54.791 141.199 54.9238C140.871 55.0527 140.499 55.1172 140.085 55.1172C139.757 55.1172 139.455 55.0762 139.177 54.9941C138.9 54.9121 138.65 54.7812 138.427 54.6016C138.208 54.418 138.021 54.1797 137.865 53.8867C137.708 53.5938 137.589 53.2383 137.507 52.8203C137.425 52.4023 137.384 51.9141 137.384 51.3555V50.0547C137.384 49.3555 137.447 48.7695 137.572 48.2969C137.701 47.8242 137.882 47.4453 138.117 47.1602C138.351 46.8711 138.632 46.6641 138.96 46.5391C139.292 46.4141 139.664 46.3516 140.074 46.3516C140.406 46.3516 140.71 46.3926 140.988 46.4746C141.269 46.5527 141.519 46.6797 141.738 46.8555C141.956 47.0273 142.142 47.2578 142.294 47.5469C142.451 47.832 142.57 48.1816 142.652 48.5957C142.734 49.0098 142.775 49.4961 142.775 50.0547ZM141.685 51.5312V49.873C141.685 49.4902 141.662 49.1543 141.615 48.8652C141.572 48.5723 141.507 48.3223 141.421 48.1152C141.335 47.9082 141.226 47.7402 141.093 47.6113C140.964 47.4824 140.814 47.3887 140.642 47.3301C140.474 47.2676 140.285 47.2363 140.074 47.2363C139.816 47.2363 139.587 47.2852 139.388 47.3828C139.189 47.4766 139.021 47.627 138.884 47.834C138.751 48.041 138.65 48.3125 138.58 48.6484C138.509 48.9844 138.474 49.3926 138.474 49.873V51.5312C138.474 51.9141 138.496 52.252 138.539 52.5449C138.585 52.8379 138.654 53.0918 138.744 53.3066C138.833 53.5176 138.943 53.6914 139.072 53.8281C139.201 53.9648 139.349 54.0664 139.517 54.1328C139.689 54.1953 139.878 54.2266 140.085 54.2266C140.351 54.2266 140.583 54.1758 140.783 54.0742C140.982 53.9727 141.148 53.8145 141.281 53.5996C141.417 53.3809 141.519 53.1016 141.585 52.7617C141.652 52.418 141.685 52.0078 141.685 51.5312Z" fill="white"/>
<path d="M154.419 50.2012H155.192C155.571 50.2012 155.883 50.1387 156.129 50.0137C156.379 49.8848 156.565 49.7109 156.686 49.4922C156.811 49.2695 156.874 49.0195 156.874 48.7422C156.874 48.4141 156.819 48.1387 156.71 47.916C156.6 47.6934 156.436 47.5254 156.217 47.4121C155.999 47.2988 155.721 47.2422 155.385 47.2422C155.081 47.2422 154.811 47.3027 154.577 47.4238C154.346 47.541 154.165 47.709 154.032 47.9277C153.903 48.1465 153.838 48.4043 153.838 48.7012H152.754C152.754 48.2676 152.864 47.873 153.083 47.5176C153.301 47.1621 153.608 46.8789 154.002 46.668C154.401 46.457 154.862 46.3516 155.385 46.3516C155.901 46.3516 156.352 46.4434 156.739 46.627C157.126 46.8066 157.426 47.0762 157.641 47.4355C157.856 47.791 157.963 48.2344 157.963 48.7656C157.963 48.9805 157.913 49.2109 157.811 49.457C157.713 49.6992 157.559 49.9258 157.348 50.1367C157.141 50.3477 156.872 50.5215 156.54 50.6582C156.208 50.791 155.809 50.8574 155.344 50.8574H154.419V50.2012ZM154.419 51.0918V50.4414H155.344C155.887 50.4414 156.336 50.5059 156.692 50.6348C157.047 50.7637 157.327 50.9355 157.53 51.1504C157.737 51.3652 157.881 51.6016 157.963 51.8594C158.049 52.1133 158.092 52.3672 158.092 52.6211C158.092 53.0195 158.024 53.373 157.887 53.6816C157.754 53.9902 157.565 54.252 157.319 54.4668C157.077 54.6816 156.792 54.8438 156.463 54.9531C156.135 55.0625 155.778 55.1172 155.391 55.1172C155.02 55.1172 154.67 55.0645 154.342 54.959C154.018 54.8535 153.731 54.7012 153.481 54.502C153.231 54.2988 153.036 54.0508 152.895 53.7578C152.754 53.4609 152.684 53.123 152.684 52.7441H153.768C153.768 53.041 153.833 53.3008 153.961 53.5234C154.094 53.7461 154.282 53.9199 154.524 54.0449C154.77 54.166 155.059 54.2266 155.391 54.2266C155.723 54.2266 156.008 54.1699 156.247 54.0566C156.489 53.9395 156.674 53.7637 156.803 53.5293C156.936 53.2949 157.002 53 157.002 52.6445C157.002 52.2891 156.928 51.998 156.78 51.7715C156.631 51.541 156.42 51.3711 156.147 51.2617C155.877 51.1484 155.559 51.0918 155.192 51.0918H154.419ZM161.438 50.9395L160.57 50.7168L160.998 46.4688H165.375V47.4707H161.918L161.66 49.791C161.816 49.7012 162.014 49.6172 162.252 49.5391C162.494 49.4609 162.772 49.4219 163.084 49.4219C163.479 49.4219 163.832 49.4902 164.145 49.627C164.457 49.7598 164.723 49.9512 164.941 50.2012C165.164 50.4512 165.334 50.752 165.451 51.1035C165.568 51.4551 165.627 51.8477 165.627 52.2812C165.627 52.6914 165.57 53.0684 165.457 53.4121C165.348 53.7559 165.182 54.0566 164.959 54.3145C164.736 54.5684 164.455 54.7656 164.115 54.9062C163.779 55.0469 163.383 55.1172 162.926 55.1172C162.582 55.1172 162.256 55.0703 161.947 54.9766C161.643 54.8789 161.369 54.7324 161.127 54.5371C160.889 54.3379 160.693 54.0918 160.541 53.7988C160.393 53.502 160.299 53.1543 160.26 52.7559H161.291C161.338 53.0762 161.432 53.3457 161.572 53.5645C161.713 53.7832 161.897 53.9492 162.123 54.0625C162.354 54.1719 162.621 54.2266 162.926 54.2266C163.184 54.2266 163.412 54.1816 163.611 54.0918C163.811 54.002 163.979 53.873 164.115 53.7051C164.252 53.5371 164.356 53.334 164.426 53.0957C164.5 52.8574 164.537 52.5898 164.537 52.293C164.537 52.0234 164.5 51.7734 164.426 51.543C164.352 51.3125 164.24 51.1113 164.092 50.9395C163.947 50.7676 163.77 50.6348 163.559 50.541C163.348 50.4434 163.106 50.3945 162.832 50.3945C162.469 50.3945 162.193 50.4434 162.006 50.541C161.822 50.6387 161.633 50.7715 161.438 50.9395Z" fill="white"/>
<path d="M181.249 52.1289V53.0195H175.085V52.3809L178.905 46.4688H179.79L178.841 48.1797L176.316 52.1289H181.249ZM180.06 46.4688V55H178.976V46.4688H180.06ZM188.069 50.0547V51.3555C188.069 52.0547 188.007 52.6445 187.882 53.125C187.757 53.6055 187.577 53.9922 187.342 54.2852C187.108 54.5781 186.825 54.791 186.493 54.9238C186.165 55.0527 185.794 55.1172 185.38 55.1172C185.051 55.1172 184.749 55.0762 184.471 54.9941C184.194 54.9121 183.944 54.7812 183.721 54.6016C183.503 54.418 183.315 54.1797 183.159 53.8867C183.003 53.5938 182.883 53.2383 182.801 52.8203C182.719 52.4023 182.678 51.9141 182.678 51.3555V50.0547C182.678 49.3555 182.741 48.7695 182.866 48.2969C182.995 47.8242 183.176 47.4453 183.411 47.1602C183.645 46.8711 183.926 46.6641 184.255 46.5391C184.587 46.4141 184.958 46.3516 185.368 46.3516C185.7 46.3516 186.005 46.3926 186.282 46.4746C186.563 46.5527 186.813 46.6797 187.032 46.8555C187.251 47.0273 187.436 47.2578 187.589 47.5469C187.745 47.832 187.864 48.1816 187.946 48.5957C188.028 49.0098 188.069 49.4961 188.069 50.0547ZM186.979 51.5312V49.873C186.979 49.4902 186.956 49.1543 186.909 48.8652C186.866 48.5723 186.801 48.3223 186.716 48.1152C186.63 47.9082 186.52 47.7402 186.387 47.6113C186.258 47.4824 186.108 47.3887 185.936 47.3301C185.768 47.2676 185.579 47.2363 185.368 47.2363C185.11 47.2363 184.882 47.2852 184.682 47.3828C184.483 47.4766 184.315 47.627 184.178 47.834C184.046 48.041 183.944 48.3125 183.874 48.6484C183.803 48.9844 183.768 49.3926 183.768 49.873V51.5312C183.768 51.9141 183.79 52.252 183.833 52.5449C183.88 52.8379 183.948 53.0918 184.038 53.3066C184.128 53.5176 184.237 53.6914 184.366 53.8281C184.495 53.9648 184.643 54.0664 184.811 54.1328C184.983 54.1953 185.173 54.2266 185.38 54.2266C185.645 54.2266 185.878 54.1758 186.077 54.0742C186.276 53.9727 186.442 53.8145 186.575 53.5996C186.712 53.3809 186.813 53.1016 186.88 52.7617C186.946 52.418 186.979 52.0078 186.979 51.5312Z" fill="white"/>
<path d="M203.896 52.1289V53.0195H197.732V52.3809L201.553 46.4688H202.437L201.488 48.1797L198.963 52.1289H203.896ZM202.707 46.4688V55H201.623V46.4688H202.707ZM206.732 50.9395L205.865 50.7168L206.292 46.4688H210.669V47.4707H207.212L206.954 49.791C207.111 49.7012 207.308 49.6172 207.546 49.5391C207.788 49.4609 208.066 49.4219 208.378 49.4219C208.773 49.4219 209.126 49.4902 209.439 49.627C209.751 49.7598 210.017 49.9512 210.236 50.2012C210.458 50.4512 210.628 50.752 210.745 51.1035C210.863 51.4551 210.921 51.8477 210.921 52.2812C210.921 52.6914 210.865 53.0684 210.751 53.4121C210.642 53.7559 210.476 54.0566 210.253 54.3145C210.031 54.5684 209.749 54.7656 209.409 54.9062C209.074 55.0469 208.677 55.1172 208.22 55.1172C207.876 55.1172 207.55 55.0703 207.242 54.9766C206.937 54.8789 206.663 54.7324 206.421 54.5371C206.183 54.3379 205.988 54.0918 205.835 53.7988C205.687 53.502 205.593 53.1543 205.554 52.7559H206.585C206.632 53.0762 206.726 53.3457 206.867 53.5645C207.007 53.7832 207.191 53.9492 207.417 54.0625C207.648 54.1719 207.915 54.2266 208.22 54.2266C208.478 54.2266 208.706 54.1816 208.906 54.0918C209.105 54.002 209.273 53.873 209.409 53.7051C209.546 53.5371 209.65 53.334 209.72 53.0957C209.794 52.8574 209.831 52.5898 209.831 52.293C209.831 52.0234 209.794 51.7734 209.72 51.543C209.646 51.3125 209.534 51.1113 209.386 50.9395C209.242 50.7676 209.064 50.6348 208.853 50.541C208.642 50.4434 208.4 50.3945 208.126 50.3945C207.763 50.3945 207.488 50.4434 207.3 50.541C207.117 50.6387 206.927 50.7715 206.732 50.9395Z" fill="white"/>
<path d="M222.149 50.9395L221.282 50.7168L221.709 46.4688H226.086V47.4707H222.629L222.371 49.791C222.528 49.7012 222.725 49.6172 222.963 49.5391C223.205 49.4609 223.483 49.4219 223.795 49.4219C224.19 49.4219 224.543 49.4902 224.856 49.627C225.168 49.7598 225.434 49.9512 225.653 50.2012C225.875 50.4512 226.045 50.752 226.162 51.1035C226.28 51.4551 226.338 51.8477 226.338 52.2812C226.338 52.6914 226.282 53.0684 226.168 53.4121C226.059 53.7559 225.893 54.0566 225.67 54.3145C225.448 54.5684 225.166 54.7656 224.826 54.9062C224.491 55.0469 224.094 55.1172 223.637 55.1172C223.293 55.1172 222.967 55.0703 222.659 54.9766C222.354 54.8789 222.08 54.7324 221.838 54.5371C221.6 54.3379 221.405 54.0918 221.252 53.7988C221.104 53.502 221.01 53.1543 220.971 52.7559H222.002C222.049 53.0762 222.143 53.3457 222.284 53.5645C222.424 53.7832 222.608 53.9492 222.834 54.0625C223.065 54.1719 223.332 54.2266 223.637 54.2266C223.895 54.2266 224.123 54.1816 224.323 54.0918C224.522 54.002 224.69 53.873 224.826 53.7051C224.963 53.5371 225.067 53.334 225.137 53.0957C225.211 52.8574 225.248 52.5898 225.248 52.293C225.248 52.0234 225.211 51.7734 225.137 51.543C225.063 51.3125 224.951 51.1113 224.803 50.9395C224.659 50.7676 224.481 50.6348 224.27 50.541C224.059 50.4434 223.817 50.3945 223.543 50.3945C223.18 50.3945 222.905 50.4434 222.717 50.541C222.534 50.6387 222.344 50.7715 222.149 50.9395ZM233.363 50.0547V51.3555C233.363 52.0547 233.301 52.6445 233.176 53.125C233.051 53.6055 232.871 53.9922 232.637 54.2852C232.402 54.5781 232.119 54.791 231.787 54.9238C231.459 55.0527 231.088 55.1172 230.674 55.1172C230.346 55.1172 230.043 55.0762 229.765 54.9941C229.488 54.9121 229.238 54.7812 229.015 54.6016C228.797 54.418 228.609 54.1797 228.453 53.8867C228.297 53.5938 228.178 53.2383 228.096 52.8203C228.014 52.4023 227.972 51.9141 227.972 51.3555V50.0547C227.972 49.3555 228.035 48.7695 228.16 48.2969C228.289 47.8242 228.471 47.4453 228.705 47.1602C228.939 46.8711 229.221 46.6641 229.549 46.5391C229.881 46.4141 230.252 46.3516 230.662 46.3516C230.994 46.3516 231.299 46.3926 231.576 46.4746C231.857 46.5527 232.107 46.6797 232.326 46.8555C232.545 47.0273 232.73 47.2578 232.883 47.5469C233.039 47.832 233.158 48.1816 233.24 48.5957C233.322 49.0098 233.363 49.4961 233.363 50.0547ZM232.273 51.5312V49.873C232.273 49.4902 232.25 49.1543 232.203 48.8652C232.16 48.5723 232.096 48.3223 232.01 48.1152C231.924 47.9082 231.814 47.7402 231.681 47.6113C231.553 47.4824 231.402 47.3887 231.23 47.3301C231.062 47.2676 230.873 47.2363 230.662 47.2363C230.404 47.2363 230.176 47.2852 229.976 47.3828C229.777 47.4766 229.609 47.627 229.472 47.834C229.34 48.041 229.238 48.3125 229.168 48.6484C229.097 48.9844 229.062 49.3926 229.062 49.873V51.5312C229.062 51.9141 229.084 52.252 229.127 52.5449C229.174 52.8379 229.242 53.0918 229.332 53.3066C229.422 53.5176 229.531 53.6914 229.66 53.8281C229.789 53.9648 229.937 54.0664 230.105 54.1328C230.277 54.1953 230.467 54.2266 230.674 54.2266C230.939 54.2266 231.172 54.1758 231.371 54.0742C231.57 53.9727 231.736 53.8145 231.869 53.5996C232.006 53.3809 232.107 53.1016 232.174 52.7617C232.24 52.418 232.273 52.0078 232.273 51.5312Z" fill="white"/>
<path d="M244.796 50.9395L243.929 50.7168L244.356 46.4688H248.733V47.4707H245.276L245.018 49.791C245.175 49.7012 245.372 49.6172 245.61 49.5391C245.852 49.4609 246.13 49.4219 246.442 49.4219C246.837 49.4219 247.19 49.4902 247.503 49.627C247.815 49.7598 248.081 49.9512 248.3 50.2012C248.522 50.4512 248.692 50.752 248.81 51.1035C248.927 51.4551 248.985 51.8477 248.985 52.2812C248.985 52.6914 248.929 53.0684 248.815 53.4121C248.706 53.7559 248.54 54.0566 248.317 54.3145C248.095 54.5684 247.813 54.7656 247.474 54.9062C247.138 55.0469 246.741 55.1172 246.284 55.1172C245.94 55.1172 245.614 55.0703 245.306 54.9766C245.001 54.8789 244.727 54.7324 244.485 54.5371C244.247 54.3379 244.052 54.0918 243.899 53.7988C243.751 53.502 243.657 53.1543 243.618 52.7559H244.649C244.696 53.0762 244.79 53.3457 244.931 53.5645C245.071 53.7832 245.255 53.9492 245.481 54.0625C245.712 54.1719 245.979 54.2266 246.284 54.2266C246.542 54.2266 246.77 54.1816 246.97 54.0918C247.169 54.002 247.337 53.873 247.474 53.7051C247.61 53.5371 247.714 53.334 247.784 53.0957C247.858 52.8574 247.895 52.5898 247.895 52.293C247.895 52.0234 247.858 51.7734 247.784 51.543C247.71 51.3125 247.599 51.1113 247.45 50.9395C247.306 50.7676 247.128 50.6348 246.917 50.541C246.706 50.4434 246.464 50.3945 246.19 50.3945C245.827 50.3945 245.552 50.4434 245.364 50.541C245.181 50.6387 244.991 50.7715 244.796 50.9395ZM252.026 50.9395L251.159 50.7168L251.586 46.4688H255.963V47.4707H252.506L252.248 49.791C252.405 49.7012 252.602 49.6172 252.84 49.5391C253.082 49.4609 253.36 49.4219 253.672 49.4219C254.067 49.4219 254.42 49.4902 254.733 49.627C255.045 49.7598 255.311 49.9512 255.53 50.2012C255.752 50.4512 255.922 50.752 256.04 51.1035C256.157 51.4551 256.215 51.8477 256.215 52.2812C256.215 52.6914 256.159 53.0684 256.045 53.4121C255.936 53.7559 255.77 54.0566 255.547 54.3145C255.325 54.5684 255.043 54.7656 254.704 54.9062C254.368 55.0469 253.971 55.1172 253.514 55.1172C253.17 55.1172 252.844 55.0703 252.536 54.9766C252.231 54.8789 251.957 54.7324 251.715 54.5371C251.477 54.3379 251.282 54.0918 251.129 53.7988C250.981 53.502 250.887 53.1543 250.848 52.7559H251.879C251.926 53.0762 252.02 53.3457 252.161 53.5645C252.301 53.7832 252.485 53.9492 252.711 54.0625C252.942 54.1719 253.209 54.2266 253.514 54.2266C253.772 54.2266 254 54.1816 254.2 54.0918C254.399 54.002 254.567 53.873 254.704 53.7051C254.84 53.5371 254.944 53.334 255.014 53.0957C255.088 52.8574 255.125 52.5898 255.125 52.293C255.125 52.0234 255.088 51.7734 255.014 51.543C254.94 51.3125 254.829 51.1113 254.68 50.9395C254.536 50.7676 254.358 50.6348 254.147 50.541C253.936 50.4434 253.694 50.3945 253.42 50.3945C253.057 50.3945 252.782 50.4434 252.594 50.541C252.411 50.6387 252.221 50.7715 252.026 50.9395Z" fill="white"/>
<path d="M270.232 46.457H270.326V47.377H270.232C269.658 47.377 269.177 47.4707 268.791 47.6582C268.404 47.8418 268.097 48.0898 267.871 48.4023C267.644 48.7109 267.48 49.0586 267.378 49.4453C267.281 49.832 267.232 50.2246 267.232 50.623V51.877C267.232 52.2559 267.277 52.5918 267.367 52.8848C267.457 53.1738 267.58 53.418 267.736 53.6172C267.892 53.8164 268.068 53.9668 268.263 54.0684C268.462 54.1699 268.669 54.2207 268.884 54.2207C269.134 54.2207 269.357 54.1738 269.552 54.0801C269.748 53.9824 269.912 53.8477 270.044 53.6758C270.181 53.5 270.285 53.293 270.355 53.0547C270.425 52.8164 270.461 52.5547 270.461 52.2695C270.461 52.0156 270.429 51.7715 270.367 51.5371C270.304 51.2988 270.209 51.0879 270.08 50.9043C269.951 50.7168 269.789 50.5703 269.593 50.4648C269.402 50.3555 269.173 50.3008 268.908 50.3008C268.607 50.3008 268.326 50.375 268.064 50.5234C267.806 50.668 267.593 50.8594 267.425 51.0977C267.261 51.332 267.168 51.5879 267.144 51.8652L266.57 51.8594C266.625 51.4219 266.726 51.0488 266.875 50.7402C267.027 50.4277 267.214 50.1738 267.437 49.9785C267.664 49.7793 267.916 49.6348 268.193 49.5449C268.474 49.4512 268.771 49.4043 269.084 49.4043C269.509 49.4043 269.877 49.4844 270.185 49.6445C270.494 49.8047 270.748 50.0195 270.947 50.2891C271.146 50.5547 271.293 50.8555 271.386 51.1914C271.484 51.5234 271.533 51.8652 271.533 52.2168C271.533 52.6191 271.476 52.9961 271.363 53.3477C271.25 53.6992 271.08 54.0078 270.853 54.2734C270.63 54.5391 270.355 54.7461 270.027 54.8945C269.699 55.043 269.318 55.1172 268.884 55.1172C268.423 55.1172 268.021 55.0234 267.677 54.8359C267.334 54.6445 267.048 54.3906 266.822 54.0742C266.595 53.7578 266.425 53.4062 266.312 53.0195C266.199 52.6328 266.142 52.2402 266.142 51.8418V51.332C266.142 50.7305 266.203 50.1406 266.324 49.5625C266.445 48.9844 266.654 48.4609 266.951 47.9922C267.252 47.5234 267.668 47.1504 268.199 46.873C268.73 46.5957 269.408 46.457 270.232 46.457ZM278.657 50.0547V51.3555C278.657 52.0547 278.595 52.6445 278.47 53.125C278.345 53.6055 278.165 53.9922 277.931 54.2852C277.696 54.5781 277.413 54.791 277.081 54.9238C276.753 55.0527 276.382 55.1172 275.968 55.1172C275.64 55.1172 275.337 55.0762 275.06 54.9941C274.782 54.9121 274.532 54.7812 274.31 54.6016C274.091 54.418 273.903 54.1797 273.747 53.8867C273.591 53.5938 273.472 53.2383 273.39 52.8203C273.308 52.4023 273.267 51.9141 273.267 51.3555V50.0547C273.267 49.3555 273.329 48.7695 273.454 48.2969C273.583 47.8242 273.765 47.4453 273.999 47.1602C274.233 46.8711 274.515 46.6641 274.843 46.5391C275.175 46.4141 275.546 46.3516 275.956 46.3516C276.288 46.3516 276.593 46.3926 276.87 46.4746C277.151 46.5527 277.401 46.6797 277.62 46.8555C277.839 47.0273 278.024 47.2578 278.177 47.5469C278.333 47.832 278.452 48.1816 278.534 48.5957C278.616 49.0098 278.657 49.4961 278.657 50.0547ZM277.567 51.5312V49.873C277.567 49.4902 277.544 49.1543 277.497 48.8652C277.454 48.5723 277.39 48.3223 277.304 48.1152C277.218 47.9082 277.108 47.7402 276.976 47.6113C276.847 47.4824 276.696 47.3887 276.524 47.3301C276.357 47.2676 276.167 47.2363 275.956 47.2363C275.698 47.2363 275.47 47.2852 275.271 47.3828C275.071 47.4766 274.903 47.627 274.767 47.834C274.634 48.041 274.532 48.3125 274.462 48.6484C274.392 48.9844 274.357 49.3926 274.357 49.873V51.5312C274.357 51.9141 274.378 52.252 274.421 52.5449C274.468 52.8379 274.536 53.0918 274.626 53.3066C274.716 53.5176 274.825 53.6914 274.954 53.8281C275.083 53.9648 275.232 54.0664 275.399 54.1328C275.571 54.1953 275.761 54.2266 275.968 54.2266C276.233 54.2266 276.466 54.1758 276.665 54.0742C276.864 53.9727 277.03 53.8145 277.163 53.5996C277.3 53.3809 277.401 53.1016 277.468 52.7617C277.534 52.418 277.567 52.0078 277.567 51.5312Z" fill="white"/>
<path d="M292.879 46.457H292.973V47.377H292.879C292.305 47.377 291.824 47.4707 291.438 47.6582C291.051 47.8418 290.744 48.0898 290.518 48.4023C290.291 48.7109 290.127 49.0586 290.026 49.4453C289.928 49.832 289.879 50.2246 289.879 50.623V51.877C289.879 52.2559 289.924 52.5918 290.014 52.8848C290.104 53.1738 290.227 53.418 290.383 53.6172C290.539 53.8164 290.715 53.9668 290.91 54.0684C291.11 54.1699 291.317 54.2207 291.531 54.2207C291.781 54.2207 292.004 54.1738 292.199 54.0801C292.395 53.9824 292.559 53.8477 292.692 53.6758C292.828 53.5 292.932 53.293 293.002 53.0547C293.072 52.8164 293.108 52.5547 293.108 52.2695C293.108 52.0156 293.076 51.7715 293.014 51.5371C292.951 51.2988 292.856 51.0879 292.727 50.9043C292.598 50.7168 292.436 50.5703 292.24 50.4648C292.049 50.3555 291.82 50.3008 291.555 50.3008C291.254 50.3008 290.973 50.375 290.711 50.5234C290.453 50.668 290.24 50.8594 290.072 51.0977C289.908 51.332 289.815 51.5879 289.791 51.8652L289.217 51.8594C289.272 51.4219 289.373 51.0488 289.522 50.7402C289.674 50.4277 289.862 50.1738 290.084 49.9785C290.311 49.7793 290.563 49.6348 290.84 49.5449C291.121 49.4512 291.418 49.4043 291.731 49.4043C292.156 49.4043 292.524 49.4844 292.832 49.6445C293.141 49.8047 293.395 50.0195 293.594 50.2891C293.793 50.5547 293.94 50.8555 294.033 51.1914C294.131 51.5234 294.18 51.8652 294.18 52.2168C294.18 52.6191 294.123 52.9961 294.01 53.3477C293.897 53.6992 293.727 54.0078 293.5 54.2734C293.278 54.5391 293.002 54.7461 292.674 54.8945C292.346 55.043 291.965 55.1172 291.531 55.1172C291.07 55.1172 290.668 55.0234 290.324 54.8359C289.981 54.6445 289.695 54.3906 289.469 54.0742C289.242 53.7578 289.072 53.4062 288.959 53.0195C288.846 52.6328 288.789 52.2402 288.789 51.8418V51.332C288.789 50.7305 288.85 50.1406 288.971 49.5625C289.092 48.9844 289.301 48.4609 289.598 47.9922C289.899 47.5234 290.315 47.1504 290.846 46.873C291.377 46.5957 292.055 46.457 292.879 46.457ZM297.32 50.9395L296.453 50.7168L296.881 46.4688H301.258V47.4707H297.8L297.543 49.791C297.699 49.7012 297.896 49.6172 298.134 49.5391C298.377 49.4609 298.654 49.4219 298.967 49.4219C299.361 49.4219 299.715 49.4902 300.027 49.627C300.34 49.7598 300.605 49.9512 300.824 50.2012C301.047 50.4512 301.217 50.752 301.334 51.1035C301.451 51.4551 301.509 51.8477 301.509 52.2812C301.509 52.6914 301.453 53.0684 301.34 53.4121C301.23 53.7559 301.064 54.0566 300.842 54.3145C300.619 54.5684 300.338 54.7656 299.998 54.9062C299.662 55.0469 299.265 55.1172 298.808 55.1172C298.465 55.1172 298.138 55.0703 297.83 54.9766C297.525 54.8789 297.252 54.7324 297.009 54.5371C296.771 54.3379 296.576 54.0918 296.424 53.7988C296.275 53.502 296.181 53.1543 296.142 52.7559H297.174C297.22 53.0762 297.314 53.3457 297.455 53.5645C297.595 53.7832 297.779 53.9492 298.006 54.0625C298.236 54.1719 298.504 54.2266 298.808 54.2266C299.066 54.2266 299.295 54.1816 299.494 54.0918C299.693 54.002 299.861 53.873 299.998 53.7051C300.134 53.5371 300.238 53.334 300.308 53.0957C300.383 52.8574 300.42 52.5898 300.42 52.293C300.42 52.0234 300.383 51.7734 300.308 51.543C300.234 51.3125 300.123 51.1113 299.974 50.9395C299.83 50.7676 299.652 50.6348 299.441 50.541C299.23 50.4434 298.988 50.3945 298.715 50.3945C298.351 50.3945 298.076 50.4434 297.888 50.541C297.705 50.6387 297.515 50.7715 297.32 50.9395Z" fill="white"/>
<rect y="20" width="310" height="8" rx="4" fill="url(#paint0_linear_132_2655)"/>
<rect width="1" height="28" fill="white"/>
<defs>
<linearGradient id="paint0_linear_132_2655" x1="-2.88711e-07" y1="24" x2="310" y2="24" gradientUnits="userSpaceOnUse">
<stop stop-color="#31325D"/>
<stop offset="0.493789" stop-color="#25CB55"/>
<stop offset="0.587354" stop-color="#FED138"/>
<stop offset="0.661458" stop-color="#E82127"/>
</linearGradient>
</defs>
</svg>
