<svg width="64" height="64" viewBox="0 0 64 64" fill="none" xmlns="http://www.w3.org/2000/svg">
<path d="M18 52.4933C21.9892 55.6358 26.9217 57.341 32 57.3333C37.284 57.3333 42.1467 55.5253 46 52.4933" stroke="#232635" stroke-width="5.33333"/>
<path d="M25.3335 12.996C16.0682 15.8427 9.3335 24.468 9.3335 34.6667C9.3335 37.2334 9.76016 39.7 10.5468 42" stroke="#232635" stroke-width="5.33333"/>
<path d="M38.6667 12.996C47.9321 15.8427 54.6667 24.468 54.6667 34.6667C54.6667 37.2334 54.2401 39.7 53.4534 42" stroke="#232635" stroke-width="5.33333"/>
<path d="M57.3333 48C57.3333 49.7893 56.6293 51.4133 55.4827 52.6107C54.4119 53.7294 52.985 54.4404 51.447 54.6217C49.9091 54.803 48.356 54.4432 47.0545 53.6041C45.7529 52.765 44.784 51.499 44.3142 50.0234C43.8444 48.5478 43.9029 46.9546 44.4798 45.5175C45.0566 44.0804 46.1158 42.8889 47.4755 42.1476C48.8351 41.4063 50.4104 41.1615 51.9309 41.4551C53.4514 41.7488 54.8222 42.5626 55.808 43.7569C56.7938 44.9512 57.3331 46.4514 57.3333 48V48Z" stroke="#232635" stroke-width="5.33333" stroke-linecap="round" stroke-linejoin="round"/>
<path d="M20.0001 48C20.0001 49.7893 19.2961 51.4133 18.1494 52.6107C17.0786 53.7294 15.6517 54.4404 14.1138 54.6217C12.5758 54.803 11.0228 54.4432 9.7212 53.6041C8.41963 52.765 7.45077 51.499 6.98095 50.0234C6.51114 48.5478 6.56969 46.9546 7.14654 45.5175C7.72339 44.0804 8.78256 42.8889 10.1422 42.1476C11.5019 41.4063 13.0771 41.1615 14.5976 41.4551C16.1181 41.7488 17.489 42.5626 18.4748 43.7569C19.4606 44.9512 19.9999 46.4514 20.0001 48Z" stroke="#232635" stroke-width="5.33333" stroke-linecap="round" stroke-linejoin="round"/>
<path d="M38.6668 12C38.6668 13.7893 37.9628 15.4133 36.8162 16.6107C35.7454 17.7294 34.3185 18.4404 32.7805 18.6217C31.2426 18.803 29.6895 18.4432 28.3879 17.6041C27.0864 16.765 26.1175 15.499 25.6477 14.0234C25.1779 12.5478 25.2364 10.9546 25.8133 9.51751C26.3901 8.08036 27.4493 6.88887 28.809 6.14759C30.1686 5.40631 31.7439 5.16148 33.2644 5.45515C34.7849 5.74881 36.1557 6.56265 37.1415 7.75693C38.1273 8.95121 38.6666 10.4514 38.6668 12V12Z" stroke="#232635" stroke-width="5.33333" stroke-linecap="round" stroke-linejoin="round"/>
</svg>
