<svg width="64" height="64" viewBox="0 0 64 64" fill="none" xmlns="http://www.w3.org/2000/svg">
<path d="M45.3334 32C46.0406 32 46.7189 32.2809 47.219 32.781C47.7191 33.2811 48 33.9594 48 34.6666V58.6666H42.6667V37.3333H21.3334V58.6666H16V34.6666C16 33.9594 16.281 33.2811 16.7811 32.781C17.2812 32.2809 17.9594 32 18.6667 32H45.3334ZM32 42.6666V48H26.6667V42.6666H32ZM32 16C34.9719 15.9991 37.8852 16.8259 40.4136 18.3877C42.9419 19.9496 44.9853 22.1847 46.3147 24.8426L41.5414 27.2293C40.6559 25.4564 39.294 23.9652 37.6085 22.923C35.923 21.8808 33.9804 21.3287 31.9987 21.3287C30.017 21.3287 28.0744 21.8808 26.3889 22.923C24.7034 23.9652 23.3415 25.4564 22.456 27.2293L17.6854 24.8426C19.0148 22.1847 21.0581 19.9496 23.5865 18.3877C26.1148 16.8259 29.0282 15.9991 32 16ZM32 5.33331C36.9529 5.33224 41.8082 6.71055 46.0217 9.31377C50.2353 11.917 53.6406 15.6422 55.856 20.072L51.0854 22.4586C49.3131 18.9146 46.5889 15.9341 43.2179 13.8513C39.8469 11.7686 35.9625 10.6658 32 10.6666C28.0375 10.6658 24.1531 11.7686 20.7821 13.8513C17.4112 15.9341 14.6869 18.9146 12.9147 22.4586L8.14136 20.072C10.357 15.6418 13.7627 11.9163 17.9768 9.31307C22.1909 6.70983 27.0467 5.33175 32 5.33331Z" fill="#232635"/>
</svg>
